<svg width="19" height="33" viewBox="0 0 19 33" fill="none" xmlns="http://www.w3.org/2000/svg">
<path d="M12.3065 0.150509C11.2479 0.26852 10.0182 0.665455 9.20024 1.14285C7.35573 2.22639 6.17417 4.01797 5.75181 6.36204C5.63953 6.9789 5.62884 7.23101 5.60745 9.43026L5.58607 11.828L3.36196 11.8441C1.22875 11.8602 1.12716 11.8655 0.988158 11.9674C0.694105 12.1927 0.704798 12.0747 0.688759 15.1054C0.678066 17.5246 0.683412 17.9537 0.758262 18.1361C0.902615 18.5223 0.822419 18.5062 3.32454 18.5384L5.57003 18.5652L5.59676 25.4579C5.62349 32.1844 5.62349 32.3561 5.73042 32.5063C5.93359 32.8066 5.92824 32.8066 9.04519 32.8066C12.1622 32.8066 12.1568 32.8066 12.36 32.5063C12.4669 32.3561 12.4669 32.1951 12.4829 25.4418L12.4936 18.5384H15.0759C17.8614 18.533 17.808 18.5384 18.0058 18.238C18.102 18.0878 18.1074 17.959 18.1074 15.2234C18.1074 12.1069 18.1127 12.1713 17.8026 11.9621C17.6636 11.8655 17.5032 11.8602 15.0706 11.8441L12.4883 11.828L12.5043 9.77892C12.5204 7.77814 12.5257 7.7245 12.6433 7.46703C12.8358 7.04327 13.0015 6.8609 13.3651 6.68925C13.8302 6.46396 14.3061 6.41568 16.2147 6.41568C17.8026 6.41568 17.824 6.41568 18.0058 6.29231C18.3212 6.07775 18.3266 6.03484 18.3105 3.14899C18.2945 0.735188 18.2891 0.531357 18.1982 0.397255C17.9844 0.0861435 17.979 0.0861435 15.2363 0.091507C13.8623 0.0968704 12.5417 0.123692 12.3065 0.150509Z" fill="#FA851A"/>
</svg>
