<svg width="32" height="31" viewBox="0 0 32 31" fill="none" xmlns="http://www.w3.org/2000/svg">
<path d="M9.71756 0.775162C8.20359 0.86816 7.23548 1.06449 6.14377 1.48815C4.14575 2.2528 2.54939 3.85444 1.78726 5.85908C1.3444 6.99573 1.16932 7.92571 1.06632 9.75468C0.942736 11.842 0.942736 19.7985 1.06632 21.7928C1.25171 24.8618 1.82846 26.4841 3.30123 28.0444C4.48562 29.3154 5.876 30.0903 7.62684 30.4727C8.93483 30.762 12.0143 30.855 17.5449 30.8033C23.1991 30.7413 23.8479 30.6897 25.3928 30.1833C26.6596 29.7804 27.4835 29.2534 28.5134 28.2097C29.2549 27.4657 29.533 27.0834 29.8832 26.3911C30.5114 25.1408 30.8204 23.7871 30.9337 21.8445C31.0573 19.7779 31.0573 11.8316 30.9337 9.75468C30.7483 6.49973 30.1406 4.90843 28.4722 3.23446C26.8037 1.56048 25.2177 0.950825 21.9735 0.764828C20.0784 0.651163 11.5611 0.661497 9.71756 0.775162ZM22.9004 3.56511C25.1044 3.81311 26.7111 4.8051 27.4835 6.3964C28.0705 7.58472 28.1632 8.28737 28.2662 12.121C28.3177 14.2806 28.3177 17.0912 28.2662 19.3025C28.1838 22.4541 28.1426 23.0328 27.9572 23.7561C27.2775 26.3394 25.6914 27.6311 22.8386 27.9307C20.0475 28.22 9.59397 28.1167 8.1315 27.7861C5.60822 27.2177 4.20755 25.5231 3.83678 22.6195C3.67199 21.3072 3.67199 10.2507 3.83678 8.89703C4.21784 5.83841 5.60822 4.23677 8.41987 3.63745C9.64546 3.37912 20.7479 3.31712 22.9004 3.56511Z" fill="#FA851A"/>
<path d="M23.0961 6.16899C22.0765 6.86134 21.922 8.14271 22.746 8.97973C23.5802 9.81675 24.8572 9.65141 25.5576 8.61805C25.7636 8.30805 25.7945 8.16338 25.7636 7.61569C25.7224 6.89234 25.5267 6.55133 24.9602 6.15866C24.4865 5.83832 23.5802 5.83832 23.0961 6.16899Z" fill="#FA851A"/>
<path d="M14.4037 8.17355C9.68667 9.18621 7.01919 14.2908 8.88334 18.7445C10.284 22.1028 13.9711 24.0661 17.5243 23.3325C22.8695 22.2371 25.434 16.0992 22.4576 11.5422C20.6964 8.84521 17.5037 7.50189 14.4037 8.17355ZM17.5861 11.0152C21.2011 12.2139 22.1589 16.9568 19.3163 19.4782C18.3482 20.3358 17.2565 20.7388 15.9279 20.7181C13.1678 20.6975 11.0359 18.5378 11.0359 15.7478C11.0256 12.3275 14.3316 9.93021 17.5861 11.0152Z" fill="#FA851A"/>
</svg>
