<svg width="28" height="32" viewBox="0 0 28 32" fill="none" xmlns="http://www.w3.org/2000/svg">
<path d="M14.3624 11.5661V11.5664C14.3276 16.6068 14.2986 19.4062 14.2315 21.0288C14.1656 22.6214 14.0645 23.1756 13.8147 23.6298C13.5141 24.191 13.1285 24.631 12.6277 24.9474C12.13 25.262 11.5481 25.4358 10.882 25.5113C9.69408 25.653 8.63369 25.3454 7.86776 24.6519C7.10261 23.9591 6.68286 22.9282 6.68286 21.7213C6.68286 20.4942 7.02354 19.4934 7.80125 18.8116C8.56568 18.1414 9.66434 17.8584 11.0097 17.8584H12.0172V15.0186C12.0172 14.8592 12.0173 14.7074 12.0175 14.5628C12.0182 13.8359 12.0188 13.2913 11.9986 12.8728C11.9733 12.3507 11.9169 12.1307 11.8604 12.0323C11.8597 12.0311 11.859 12.0299 11.8583 12.0286C11.8407 11.9975 11.8166 11.9548 11.6149 11.926C11.4147 11.8974 11.1539 11.8984 10.7609 11.8998C10.6663 11.9002 10.564 11.9006 10.453 11.9006C6.81823 11.9006 3.68656 13.7362 2.20298 16.7034H2.203L2.20113 16.707C-0.555541 22.1092 1.61712 28.3586 6.83479 30.4413L6.83703 30.4422C7.72606 30.802 9.11423 30.9971 10.5439 31C11.9731 31.0028 13.3554 30.8134 14.2333 30.4646C15.0007 30.1553 15.8505 29.5948 16.6165 28.9095C17.383 28.2239 18.0368 27.4391 18.4314 26.7034H18.4313L18.4338 26.6989C18.9943 25.6788 19.3003 24.9391 19.4917 23.7604C19.6881 22.5511 19.7635 20.8824 19.8333 17.9984V17.9975L19.9725 12.64L19.9925 11.8693L20.688 12.2019L21.7501 12.7099C22.9215 13.2397 24.2127 13.5988 26.0924 13.8026L26.0925 13.8025L26.0995 13.8034L26.8605 13.8969V11.1918V8.42167H26.8039C26.2353 8.42167 25.3417 8.18549 24.5276 7.89371C23.7094 7.60047 22.8534 7.20848 22.3702 6.83322C21.0538 5.82553 20.1233 3.89864 19.9512 2.03019V2.0302L19.9506 2.02328L19.8707 1H17.1325H14.4288L14.3624 11.5661ZM19.6184 2.65675L19.6185 2.65674L19.6198 2.66442C19.7139 3.20823 19.9619 3.92367 20.288 4.62659C20.6132 5.32738 20.997 5.97468 21.3423 6.39419C22.0747 7.24983 23.6189 8.15216 24.9099 8.50403L25.9693 8.75736L26.3386 8.84568L26.3527 9.22515L26.4222 11.1038V11.104L26.4918 13.0058L26.5146 13.6272L25.9027 13.516L25.1418 13.3776C25.1411 13.3775 25.1404 13.3774 25.1396 13.3773C23.0456 13.0159 21.2491 12.2178 19.6939 10.9312L19.5112 10.7867V15.6217C19.5112 18.8376 19.3961 22.1902 19.2745 23.0657H19.2746L19.2729 23.0761C18.7633 26.2549 17.0752 28.6758 14.3873 29.9846C13.8998 30.2343 13.4882 30.3881 12.9051 30.4728C12.3448 30.5541 11.6309 30.5707 10.5458 30.5707H10.5404C8.40821 30.5475 7.70483 30.4812 6.67132 29.9911C5.77767 29.5873 4.86611 28.8963 4.08119 28.0994C3.29437 27.3005 2.60803 26.368 2.18445 25.459C1.8782 24.8111 1.68693 24.3395 1.58523 23.7654C1.48603 23.2054 1.4762 22.5691 1.48772 21.6003C1.49962 20.1787 1.64766 19.0275 2.0184 17.9901C2.39096 16.9475 2.97708 16.0513 3.82103 15.123L3.82101 15.1229L3.82461 15.1191C5.41206 13.4095 7.19669 12.5126 9.4406 12.34L9.44059 12.3399L9.44958 12.3394L11.0267 12.2466L11.5192 12.2176L11.5547 12.7097L11.6939 14.6347L11.6941 14.6382C11.7295 15.1803 11.7473 15.6944 11.7503 16.0875C11.7518 16.2834 11.7496 16.454 11.7436 16.5852C11.7406 16.6501 11.7364 16.7121 11.7302 16.7655C11.7271 16.792 11.7228 16.823 11.7163 16.8546C11.7118 16.8765 11.6988 16.9384 11.6656 17.0049L11.657 17.0221L11.6471 17.0385C11.538 17.2205 11.3564 17.2966 11.2843 17.3248C11.1841 17.364 11.0732 17.3906 10.9679 17.4096C10.7554 17.4479 10.4997 17.4667 10.2477 17.4668C8.63584 17.4887 7.0137 18.6895 6.49879 20.2754L6.49891 20.2755L6.49516 20.2862C6.43591 20.4555 6.38166 20.7684 6.3506 21.1581C6.32048 21.536 6.31518 21.9456 6.33651 22.29C6.48169 24.2006 7.82348 25.6166 9.82435 25.8876H9.8246C11.9636 26.1784 13.8228 24.966 14.4499 22.8546L14.4509 22.8514C14.5925 22.3861 14.6847 21.7595 14.7368 20.157C14.7887 18.5607 14.8003 16.0417 14.8003 11.818V1.89156V1.39156H15.3003H17.1325H18.9648H19.379L19.4561 1.79862L19.6184 2.65675Z" fill="#FA851A" stroke="#FA851A" stroke-width="2"/>
</svg>
