<svg width="29" height="28" viewBox="0 0 29 28" fill="none" xmlns="http://www.w3.org/2000/svg">
<path d="M12.4715 0.814629C6.46794 1.81787 1.88917 6.10757 0.841898 11.7119C0.756655 12.1847 0.683589 13.1994 0.683589 13.9605C0.695767 16.163 1.15851 17.9735 2.20579 19.8992L2.66853 20.7641L1.40207 24.2812C0.720122 26.2185 0.159953 27.8098 0.172131 27.8213C0.184308 27.8329 1.9257 27.314 4.0446 26.6797L7.90489 25.515L8.8791 25.9302C13.4335 27.9021 18.5725 27.4639 22.859 24.7309C24.6125 23.6008 26.4392 21.6059 27.4377 19.7262C29.4227 15.9324 29.2765 11.1007 27.0359 7.3991C25.0875 4.17029 22.0187 2.00237 18.0366 1.02219C16.551 0.664719 13.9693 0.560936 12.4715 0.814629ZM17.5374 3.08633C20.7157 3.82434 23.3704 5.70397 25.0266 8.36774C25.9399 9.84377 26.3661 11.1238 26.5366 12.865C26.9872 17.5122 24.3933 21.8134 19.912 23.8776C17.8418 24.8347 15.8569 25.1806 13.6527 24.9731C12.0818 24.8232 10.9006 24.5003 9.41491 23.8084L8.16062 23.2203L6.01737 23.866C4.84832 24.2235 3.83758 24.5118 3.77669 24.5118C3.71581 24.5118 3.99589 23.6124 4.40993 22.5053L5.14058 20.4989L4.62912 19.6801C4.02025 18.723 3.53314 17.616 3.21653 16.4974C3.03386 15.8517 2.98515 15.3097 2.99733 13.8452C3.00951 11.6312 3.20435 10.7778 4.14202 9.00198C6.62625 4.29713 12.1914 1.84093 17.5374 3.08633Z" fill="#FA851A"/>
<path d="M8.93996 8.41388C7.96575 9.38253 7.67349 10.824 8.16059 12.3115C8.6477 13.8106 10.8884 16.5436 12.6663 17.8121C13.9328 18.7115 14.6634 19.0575 16.5631 19.6686C17.9027 20.1068 18.1584 20.153 18.8282 20.0953C20.3504 19.9569 21.5438 19.1267 21.7995 18.0312C22.0552 16.9357 22.0674 16.9357 20.192 16.1169C19.0961 15.6326 18.4628 15.4135 18.3532 15.4827C18.2558 15.5288 17.8905 15.8978 17.5373 16.3014C17.1964 16.705 16.8189 17.0625 16.7214 17.0971C16.5022 17.1778 15.5524 16.7742 14.5416 16.1861C13.677 15.6787 12.2401 14.295 11.753 13.4993C11.3755 12.8881 11.3877 12.8189 12.1183 11.9656C12.3497 11.6888 12.5445 11.3314 12.5445 11.1814C12.5445 10.8816 11.5825 8.64451 11.2537 8.16019C11.0954 7.94109 10.9736 7.90649 10.2673 7.90649C9.47577 7.90649 9.45142 7.91803 8.93996 8.41388Z" fill="#FA851A"/>
</svg>
