<svg width="233" height="103" viewBox="0 0 233 103" fill="none" xmlns="http://www.w3.org/2000/svg">
<g opacity="0.7">
<path fill-rule="evenodd" clip-rule="evenodd" d="M218.624 36.9224C220.177 36.5968 222.203 34.5508 223.383 32.7066C223.059 32.6031 222.711 32.5621 222.396 32.5621C220.993 32.5621 218.572 33.3856 218.187 35.9551C218.104 36.5077 218.281 36.8744 218.624 36.9224V36.9224ZM154.035 31.2059C155.342 31.7856 156.695 32.0702 158.045 32.023C160.612 31.6345 163.267 30.3465 165.405 27.9722C167.068 26.1242 168.539 23.4382 168.865 20.1244C168.908 19.6814 168.931 19.2334 168.931 18.7846C168.931 16.8738 168.519 15.0836 167.892 13.4947C165.452 7.76262 161.202 5.65888 157.057 5.65888C156.717 5.65888 156.376 5.65845 156.036 5.713L155.388 5.80413C154.673 14.1508 154.284 22.7911 154.035 31.2059V31.2059ZM176.868 33.9255C177.323 33.5038 178.511 32.2841 178.371 31.6932C178.366 31.6728 178.358 31.6551 178.348 31.6394C178.294 31.552 178.232 31.4888 178.155 31.4671C177.612 31.3122 176.933 32.8872 176.705 33.9281C176.763 33.9108 176.82 33.907 176.868 33.9255ZM197.15 22.6219C197.148 22.9787 197.13 23.3195 197.032 23.6357C196.897 24.1755 196.747 24.979 196.571 25.4549C196.567 25.4639 196.564 25.4718 196.56 25.4804C196.347 25.9377 195.78 25.7518 195.508 25.5198C195.206 25.3432 194.627 24.6403 194.99 24.1041C195.108 23.7757 195.239 23.058 195.334 22.6642L195.398 21.8816C195.411 21.1627 196.058 21.2091 196.363 21.3959C196.673 21.5182 197.264 21.9859 197.15 22.6219V22.6219ZM224.255 35.2739C222.971 37.0562 220.916 39.3021 219.251 39.3021C218.768 39.3021 218.319 39.1189 217.897 38.6854C217.449 38.1438 217.091 37.4529 216.911 36.6087C215.752 37.9554 214.333 38.9679 212.894 38.9679C211.793 38.9679 210.652 38.2124 210.01 36.7187C209.642 35.8278 209.53 34.8231 209.53 33.7683C209.53 33.2485 209.555 32.7336 209.599 32.2208C207.738 32.6704 204.948 34.7016 204.162 37.4048L204.13 38.6115C204.169 39.7911 202.599 39.2143 202.552 37.9784C202.505 37.3756 202.49 36.8349 202.552 36.2404L202.61 35.301C201.268 37.4233 199.09 39.7931 197.318 39.9147C196.349 39.9811 195.389 39.56 194.722 38.3726C194.077 37.2627 193.912 35.0091 193.912 33.5454C193.912 32.1781 194.051 30.2131 194.513 29.024C194.628 28.4357 195.249 28.5782 195.524 28.689C195.531 28.6915 195.536 28.6944 195.543 28.6977C195.841 28.873 196.288 29.3817 196.213 29.9831C196.206 30.0436 196.189 30.092 196.167 30.1277C195.865 30.7669 195.344 36.6605 195.696 37.1539C195.954 37.4656 196.266 37.592 196.584 37.592C198.4 37.592 201.405 34.2122 202.797 32.2873L202.896 30.6971C202.896 29.9002 203.531 30.0053 203.84 30.2053C203.851 30.2123 203.86 30.2192 203.869 30.2291C204.13 30.4914 204.554 31.0803 204.508 31.6267L204.463 32.8921C205.928 31.311 208.179 29.8386 209.872 30.1302C210.528 30.2427 211.316 31.256 211.316 32.3756C211.316 33.4439 210.959 35.3314 211.338 36.2934C211.649 36.6793 211.984 36.8123 212.376 36.8123C213.956 36.8123 216.121 34.2163 217.397 32.7587C217.603 32.3642 217.847 32.0258 218.112 31.7389C219.109 30.6561 220.339 30.184 221.532 30.184C222.474 30.184 223.426 30.4919 224.296 31.0798L224.798 29.9848C225.143 29.0455 226.584 30.5519 226.263 31.5483C226.068 32.4824 225.789 33.3561 225.725 34.3464C225.696 35.1187 225.812 36.1369 226.339 36.3734C228.085 36.9256 231.01 33.9785 232.147 31.942C232.309 31.6818 232.566 31.4322 232.795 31.6338C233.123 31.924 232.986 32.725 232.873 33.1557C232.617 34.1353 232.075 35.1298 231.614 35.8726C230.609 37.4927 228.163 39.1198 226.741 38.5696C225.559 38.1122 224.726 37.0337 224.255 35.2739V35.2739ZM152.239 33.6972C151.111 32.4085 150.039 30.9588 149.08 29.3518C149.061 29.3201 149.049 29.2876 149.04 29.247C148.838 28.3515 149.497 27.4478 149.985 28.0769C149.991 28.0843 149.996 28.0908 150 28.0991L150.401 28.7444C150.985 29.3472 151.636 29.8649 152.286 30.278C152.481 22.2766 152.792 14.0359 153.454 6.10065C148.634 7.2272 143.971 10.5036 141.396 17.5278C140.79 19.5306 140.414 21.6702 140.414 23.9095C140.414 30.4135 143.583 35.074 147.577 34.8079C148.06 34.7562 148.661 34.6609 149.12 34.3768C149.652 34.0907 150.074 34.8814 149.55 35.4718C149.029 35.976 147.386 36.183 146.794 36.183C144.112 36.183 141.634 34.5497 140.143 30.8101C139.278 28.6402 138.904 26.0239 138.904 23.4636C138.904 20.9069 139.267 18.3059 139.996 16.03C142.444 8.39043 148.619 4.39831 153.686 3.63586C153.801 2.59308 153.9 1.53863 154.043 0.505627C154.048 0.464214 154.058 0.429736 154.074 0.395155C154.466 -0.473144 155.997 0.188728 155.855 1.41755C155.757 2.10359 155.672 2.79499 155.61 3.49217C160.448 3.29226 166.831 5.92648 169.346 13.1806C170.014 15.1062 170.441 17.2331 170.441 19.4531C170.441 20.4122 170.36 21.3635 170.202 22.2877C169.581 25.9057 167.857 28.6948 165.907 30.5842C163.533 32.8835 160.68 34.0425 157.92 34.2889C156.881 34.2889 155.832 34.1551 154.808 33.8381C158.15 37.1991 162.568 40.4887 166.386 40.4887C169.53 40.4887 172.467 38.173 175.065 35.5043C175.032 35.2074 175.012 34.9056 175.012 34.6038C175.012 31.9179 176.163 29.3529 177.926 29.2372C179.052 29.2372 180.237 31.0396 179.791 32.9336C179.335 34.7397 177.93 36.0602 176.72 36.2219C176.95 37.0509 177.693 37.8832 178.131 38.18C178.404 38.3651 178.7 38.4833 178.998 38.4833C181.773 38.4833 183.937 35.6323 185.766 32.5879C185.749 32.4775 185.736 32.3653 185.725 32.2524C185.41 28.8697 189.612 27.1189 191.136 26.7889C191.755 26.655 192.711 27.8884 192.272 28.774C192.249 28.8196 192.223 28.85 192.189 28.8693C191.323 29.3595 187.825 30.5711 187.495 31.8238C187.347 32.3851 188.465 33.2313 188.694 33.453C189.668 34.321 190.898 35.2652 191.765 36.3837C192.69 37.6725 191.858 39.4823 190.898 39.9044C190.132 40.2411 189.222 40.3602 188.43 40.3602C187.732 40.3602 186.803 40.2587 186.137 39.8277C185.506 39.3198 185.312 37.4643 186.294 37.8223C186.648 37.9509 187.032 37.9821 187.394 37.9821C188.286 37.9821 189.314 37.8253 190.232 37.5473C189.427 36.8834 188.613 36.2334 187.819 35.5305C187.366 35.1084 186.834 34.7221 186.421 34.1739C185.37 37.5432 183.101 40.207 180.735 40.4156C178.923 40.5753 176.51 40.1146 175.49 37.3666C173.201 40.4657 170.027 43.0897 167.008 43.0897C162.667 43.0897 157.617 39.3686 153.944 35.581C153.857 38.7256 153.82 41.8724 153.82 45.0198C153.82 47.7839 153.838 50.5803 153.955 53.3389L154.036 53.5558C154.054 53.6042 154.063 53.6527 154.063 53.7093C154.063 54.1647 153.909 54.4299 153.632 54.5042C153.616 54.5087 153.601 54.5095 153.584 54.5075C153.08 54.4332 152.86 53.2794 152.592 52.7227C152.572 52.6828 152.561 52.6426 152.556 52.593C152.375 50.995 152.308 49.2804 152.259 47.6594C152.19 45.3729 152.173 43.0757 152.173 40.7868C152.173 38.4239 152.207 36.0598 152.239 33.6972" fill="url(#paint0_linear_545:137)"/>
<path fill-rule="evenodd" clip-rule="evenodd" d="M30.0359 36.9223C31.588 36.5967 33.6133 34.5508 34.7941 32.7065C34.4698 32.603 34.1224 32.562 33.8069 32.562C32.4041 32.562 29.9832 33.3855 29.5984 35.955C29.5156 36.5077 29.6918 36.8743 30.0359 36.9223V36.9223ZM66.1258 22.6218C66.1245 22.9787 66.1056 23.3194 66.0072 23.6356C65.8735 24.1754 65.7235 24.979 65.5468 25.4548C65.5436 25.4639 65.5403 25.4717 65.5364 25.4804C65.3239 25.9377 64.7563 25.7517 64.4841 25.5198C64.1823 25.3432 63.6034 24.6402 63.9668 24.1041C64.084 23.7756 64.2146 23.0579 64.3096 22.6642L64.3743 21.8815C64.3873 21.1626 65.0337 21.2091 65.3395 21.3958C65.6492 21.5182 66.2406 21.9858 66.1258 22.6218ZM63.4893 29.024C63.6038 28.4357 64.2253 28.5781 64.5002 28.689C64.5068 28.6914 64.5124 28.6944 64.5185 28.6976C64.8175 28.8729 65.2645 29.3817 65.1895 29.9831C65.1817 30.0435 65.1661 30.092 65.1432 30.1276C64.8407 30.7669 64.3196 36.6604 64.6726 37.1539C64.93 37.4655 65.2417 37.592 65.5612 37.592C67.4312 37.592 70.8627 33.7711 72.215 31.6431C72.2521 31.0703 72.2997 30.4996 72.3584 29.9314C72.5025 28.5317 73.9767 29.9212 73.8665 31.0059C73.892 32.1727 73.8098 33.333 73.7948 34.5081C74.855 32.6346 75.9934 30.6019 77.4004 29.4904C77.8386 29.1439 78.5206 29.9729 78.7716 30.5296C78.7801 30.5489 78.7866 30.567 78.7925 30.5887C79.1374 31.9047 79.2587 33.3495 79.4582 34.743L82.5918 30.6294C82.9999 30.1588 83.7686 31.0289 83.9955 31.6029C83.9988 31.6123 84.0014 31.6206 84.0047 31.6299C84.3718 32.8132 84.5191 34.6961 85.1587 35.5891C85.518 35.9546 85.8955 36.1997 86.3271 36.1997C87.2895 36.1997 91.0477 33.5884 91.523 32.2808C91.7597 31.6312 92.5291 32.3686 91.9827 33.9678C91.4859 35.422 90.0573 36.9228 89.1393 37.5747C88.5003 38.0284 87.7896 38.3553 87.0874 38.3553C86.2385 38.3553 85.3876 37.9274 84.6697 37.1909C84.169 36.6529 83.8071 35.9968 83.4459 35.2201C83.2679 34.8094 83.1147 34.3476 82.996 33.8746C81.9724 35.2332 80.9311 36.6206 79.8298 37.8039C79.8233 37.8112 79.8174 37.8166 79.8103 37.8227C79.3767 38.1717 78.634 37.369 78.4195 36.7326C78.0374 35.3793 77.8125 33.875 77.6039 32.4203C76.026 34.2175 75.1816 36.8509 73.7681 38.8389C73.3201 39.4687 72.303 38.0329 72.1882 37.2939C72.1856 37.2758 72.1837 37.2602 72.1837 37.2413C72.1498 36.4202 72.1139 35.5941 72.1139 34.7709C72.1139 34.6494 72.1146 34.5283 72.1152 34.4071C70.7962 36.9174 68.1601 39.7865 66.2947 39.9147C65.3252 39.9811 64.3651 39.5599 63.6986 38.3725C63.0532 37.2627 62.8885 35.009 62.8885 33.5453C62.8885 32.1781 63.0267 30.2131 63.4893 29.024V29.024ZM35.6664 35.2738C34.3823 37.0561 32.3276 39.3021 30.6625 39.3021C30.1788 39.3021 29.7295 39.1189 29.3078 38.6853C28.6356 37.8728 28.1973 36.7597 28.1973 35.3839C28.1973 33.8294 28.7441 32.5838 29.5229 31.7388C30.5206 30.6561 31.7503 30.1839 32.9432 30.1839C33.8851 30.1839 34.8368 30.4918 35.7066 31.0798L36.2086 29.9848C36.5542 29.0454 37.9945 30.5518 37.6741 31.5482C37.4793 32.4823 37.2004 33.356 37.1357 34.3463C37.1075 35.1187 37.2226 36.1369 37.7503 36.3733C39.3834 36.8894 41.9538 34.3714 43.1429 32.6142L43.2626 30.6971C43.2626 29.9002 43.897 30.0053 44.2067 30.2053C44.2174 30.2122 44.2264 30.2192 44.2361 30.229C44.4963 30.4914 44.9207 31.0802 44.875 31.6267L44.8289 32.8921C46.2945 31.3109 48.5447 29.8386 50.2389 30.1301C50.895 30.2426 51.6828 31.2559 51.6828 32.3756C51.6828 33.4439 51.3254 35.3313 51.7046 36.2934C52.0148 36.6792 52.3508 36.8123 52.7418 36.8123C54.4385 36.8123 56.7422 33.8893 58.146 32.3263C58.1578 31.1709 58.1726 30.0151 58.1891 28.8598C58.2322 25.8692 58.2971 22.8777 58.3865 19.8899C55.6761 20.2577 52.9689 20.6191 50.2852 21.3622C49.3949 21.6086 48.5607 19.5991 49.4261 19.2715C52.4015 18.3929 55.4267 17.9581 58.4394 17.5619C58.5673 13.585 58.7209 9.61101 58.8798 5.63697C58.8465 4.33185 60.5292 4.70046 60.6644 6.1519C60.6672 6.18143 60.6672 6.20771 60.6647 6.23766C60.3494 9.87178 60.2071 13.6917 60.0891 17.3664C60.3525 17.35 60.6186 17.3044 60.8835 17.2617C64.2969 16.8738 67.7356 16.4258 71.1587 16.4258C72.7601 16.4258 74.6444 16.485 76.2086 17.0454C76.2216 17.0499 76.232 17.0556 76.2438 17.0638C76.5515 17.2847 76.931 17.8357 77.1168 18.2853C77.1338 18.326 77.1429 18.3658 77.1468 18.4138C77.197 19.0645 76.9147 19.4369 76.5124 19.3553C74.7422 18.7842 72.7881 18.6926 70.9859 18.6926C67.5283 18.6926 64.0809 19.1442 60.6408 19.5819C60.4255 19.6254 60.2167 19.6702 60.0025 19.6878L59.7682 28.7596C59.7234 33.3831 59.6299 37.9988 59.6299 42.6244C59.6299 45.2907 59.6543 47.9731 59.7549 50.6344C59.8222 52.4159 59.9154 54.5822 60.2106 56.3033C60.2132 56.3176 60.2147 56.3299 60.216 56.3443C60.2397 56.6387 60.22 56.9803 60.0476 57.1531C59.5532 57.648 58.7879 56.121 58.6473 55.4156C58.3712 54.0307 58.3193 51.3086 58.2736 49.8317C58.1797 46.7877 58.1458 43.7277 58.1293 40.6804C58.1229 39.5459 58.1201 38.4115 58.1201 37.2775C58.1201 36.6863 58.1214 36.095 58.1237 35.5042C56.8275 37.4244 55.0118 38.9678 53.2601 38.9678C52.1595 38.9678 51.0182 38.2123 50.3767 36.7186C50.0084 35.8277 49.8966 34.823 49.8966 33.7682C49.8966 33.2485 49.9216 32.7336 49.9654 32.2207C48.105 32.6704 45.3149 34.7015 44.5287 37.4048L44.4961 38.6114C44.5353 39.791 42.9656 39.2142 42.9178 37.9783C42.8711 37.3756 42.8563 36.8349 42.918 36.2404L42.9318 36.017C41.876 37.5875 39.5319 39.1037 38.1522 38.5696C36.9699 38.1122 36.1373 37.0336 35.6664 35.2738ZM25.848 32.2372C25.8516 32.032 25.8964 31.8205 26.0258 31.7384C26.3324 31.5433 26.5691 32.3086 26.649 32.6609C26.8224 33.4275 26.8258 34.3106 26.7325 35.1047C26.1509 40.0501 24.3632 44.477 21.9593 47.6388C19.2882 51.1518 15.9654 53.0043 12.5225 53.0043C12.0225 53.0043 11.5228 52.946 11.0195 52.8918C3.9964 51.8358 -0.105419 40.5153 0.00206099 29.9199C0.137812 16.5617 6.18499 2.1106 15.1484 2.1106C19.8798 2.1106 22.6239 6.31576 22.6239 13.8831C22.6239 19.7232 20.7704 27.6773 17.925 31.382C17.6069 31.7962 16.2375 33.0575 15.8605 32.7533C15.4889 32.454 15.6842 31.7975 15.9303 31.476C17.7353 29.1168 19.2362 24.375 19.9896 20.8974C20.5224 18.4397 20.9067 15.7163 20.9067 13.103C20.9067 7.53964 19.1656 4.34698 15.6257 4.15442C7.22716 3.69825 2.05208 17.5664 1.8575 29.7655C1.71283 38.8455 4.80505 49.5284 10.9633 50.9091C11.3718 51.0187 11.7974 51.0721 12.2113 51.0721C18.2681 51.0721 24.8588 41.8312 25.848 32.2372" fill="url(#paint1_linear_545:137)"/>
<path d="M38.7514 72.4225C38.8658 70.9896 39.5782 69.291 40.2997 68.1583C40.2732 68.5902 40.2579 69.0254 40.2429 69.4541C40.2088 70.4054 40.1772 71.3037 40.0256 71.9035C39.8379 72.6479 39.3884 73.3287 39.083 73.3287C39.0578 73.3287 39.0339 73.3225 39.0092 73.3138C38.7125 73.2072 38.7372 72.6028 38.7514 72.4225ZM49.396 67.6947C49.9538 68.4177 50.5011 69.2249 51.0475 70.0617L51.5693 70.8595L51.7242 69.7283C52.0018 67.7009 52.4017 66.9819 53.2529 66.9819C54.5824 66.9819 55.6638 68.7261 55.6638 70.8705C55.6638 72.0165 55.4022 72.9608 54.8872 73.6776C54.209 74.6203 53.1392 75.0498 52.0932 74.7998C49.5766 74.1945 49.3372 70.1849 49.351 68.4892C49.3527 68.2215 49.369 67.9579 49.396 67.6947ZM63.4935 60.6923L63.7968 61.1279L64.0663 61.6186C64.9711 60.3261 65.8884 60.6956 66.3546 61.0343C67.3229 61.734 68.001 63.3664 68.0029 65.0066C68.0049 66.5126 67.6339 67.9447 66.9584 69.0348C66.3227 70.0625 65.4796 70.6517 64.6458 70.6517C63.4222 70.6517 62.1014 69.6043 61.1985 67.9177C59.8578 65.4128 60.0988 61.8247 60.7123 59.5143C61.4871 56.5964 63.3749 54.7102 65.5214 54.7102C66.3579 54.7102 67.1599 54.9586 67.9006 55.409C66.2418 56.658 64.7365 58.4428 63.4935 60.6923ZM114.685 90.7051C113.923 91.716 113.244 93.0413 112.579 94.3416C111.025 97.3758 109.559 100.243 107.185 99.3913C106.523 99.1544 106.032 98.6449 105.768 97.9186C105.513 97.2153 105.477 96.3116 105.664 95.3069C106.184 92.5248 108.425 91.4479 109.901 91.034C110.107 91.0886 110.313 91.133 110.522 91.1604C112.062 91.3687 113.445 91.1839 114.685 90.7051ZM103.482 93.2376C102.695 95.6272 102.799 97.4801 103.096 98.7307C102.743 98.1534 102.462 97.4427 102.256 96.601C102.041 95.7282 102.14 94.5137 102.528 93.2688C103.017 91.698 103.878 90.3766 104.621 90.0544C104.709 90.0158 104.799 89.9924 104.888 89.9686C104.977 90.072 105.067 90.1673 105.157 90.2659C104.215 91.1572 103.693 92.3331 103.482 93.2376ZM111.046 64.0176C113.431 64.0176 115.469 67.0157 116.366 71.8382C116.477 72.4328 116.832 74.1872 117.444 75.8267C116.781 75.646 116.161 75.1721 115.683 74.4668C115.007 73.467 114.545 72.0206 114.057 70.4895C113.5 68.7457 112.925 66.9434 111.954 65.46C111.585 64.8946 111.191 64.4158 110.778 64.0287C110.868 64.0217 110.958 64.0176 111.046 64.0176ZM138.879 91.1604C139.087 91.133 139.294 91.0886 139.501 91.034C140.976 91.4479 143.217 92.5248 143.736 95.3069C143.924 96.3116 143.888 97.2153 143.632 97.9186C143.368 98.6449 142.879 99.1544 142.216 99.3913C139.842 100.243 138.376 97.3758 136.822 94.3416C136.157 93.0413 135.476 91.716 134.716 90.7051C135.956 91.1839 137.339 91.3687 138.879 91.1604ZM144.779 90.0544C145.523 90.3766 146.383 91.698 146.873 93.2688C147.261 94.5137 147.36 95.7282 147.146 96.601C146.938 97.4427 146.658 98.1534 146.306 98.7307C146.602 97.4801 146.707 95.6272 145.918 93.2376C145.709 92.3331 145.186 91.1572 144.244 90.2659C144.333 90.1673 144.425 90.072 144.513 89.9686C144.602 89.9924 144.691 90.0158 144.779 90.0544ZM137.447 65.46C136.476 66.9434 135.9 68.7457 135.344 70.4895C134.856 72.0206 134.393 73.467 133.719 74.4668C133.241 75.1721 132.619 75.646 131.957 75.8267C132.569 74.1872 132.924 72.4328 133.034 71.8382C133.932 67.0157 135.971 64.0176 138.355 64.0176C138.443 64.0176 138.533 64.0217 138.622 64.0287C138.21 64.4158 137.817 64.8946 137.447 65.46ZM183.881 54.7102C186.026 54.7102 187.914 56.5964 188.689 59.5143C189.302 61.8247 189.543 65.4128 188.202 67.9177C187.299 69.6043 185.979 70.6517 184.756 70.6517C183.922 70.6517 183.078 70.0625 182.442 69.0348C181.767 67.9447 181.396 66.5126 181.398 65.0066C181.4 63.3664 182.078 61.734 183.046 61.0343C183.513 60.6956 184.43 60.3261 185.335 61.6186L185.605 61.1279L185.908 60.6923C184.664 58.4428 183.159 56.658 181.5 55.409C182.241 54.9586 183.043 54.7102 183.881 54.7102ZM200.05 68.4892C200.064 70.1849 199.824 74.1945 197.308 74.7998C196.262 75.0498 195.192 74.6203 194.514 73.6776C193.999 72.9608 193.737 72.0165 193.737 70.8705C193.737 68.7261 194.819 66.9819 196.148 66.9819C196.998 66.9819 197.399 67.7009 197.677 69.7283L197.832 70.8595L198.353 70.0617C198.9 69.2249 199.447 68.4177 200.005 67.6947C200.033 67.9579 200.048 68.2215 200.05 68.4892ZM210.649 72.4225C210.664 72.6028 210.689 73.2072 210.391 73.3138C210.367 73.3225 210.343 73.3287 210.318 73.3287C210.013 73.3287 209.563 72.6479 209.376 71.9035C209.224 71.3037 209.192 70.4054 209.158 69.4541C209.143 69.0254 209.127 68.5902 209.1 68.1583C209.823 69.291 210.535 70.9896 210.649 72.4225ZM171.331 73.8045C172.291 75.8237 172.759 78.2646 173.177 80.8726C172.768 80.5865 172.381 80.3085 172.225 80.1734C170.785 78.3681 170.134 75.8073 169.383 72.8495C169.113 71.7845 168.839 70.7051 168.52 69.6372C169.593 70.7162 170.52 72.0977 171.331 73.8045ZM183.967 89.2562C184.159 88.0672 184.341 86.943 184.627 86.2471C184.951 85.4583 185.541 84.8158 185.944 84.8158C186.015 84.8158 186.078 84.8367 186.136 84.8795C186.495 85.1361 186.369 85.8907 186.322 86.1137C185.951 87.8803 184.782 89.7362 183.69 90.8714C183.791 90.3368 183.879 89.7945 183.967 89.2562ZM155.26 82.579L155.279 82.4517C155.305 82.2743 155.334 82.0957 155.362 81.9159C155.412 81.5986 155.464 81.2746 155.507 80.9457C155.588 81.2184 155.665 81.4918 155.733 81.7702C155.998 82.85 156.088 83.7836 156.001 84.5502C155.99 84.6388 155.929 85.0893 155.722 85.0893C155.712 85.0893 155.703 85.0868 155.693 85.0859C155.438 85.0495 155.201 84.3071 155.172 83.718C155.156 83.3697 155.21 82.9271 155.26 82.579ZM130.642 96.3198C131.01 96.4844 131.358 96.64 131.572 96.8769C131.835 97.1668 132.078 97.7815 131.985 98.1058C131.967 98.1686 131.93 98.298 131.774 98.298C131.72 98.298 131.659 98.2795 131.6 98.2446C131.053 97.9325 130.486 96.9738 130.14 96.0829C130.307 96.1695 130.476 96.2443 130.642 96.3198ZM117.802 98.2446C117.742 98.2795 117.682 98.298 117.626 98.298C117.472 98.298 117.434 98.1686 117.416 98.1058C117.323 97.7815 117.566 97.1668 117.829 96.8769C118.043 96.64 118.39 96.4844 118.759 96.3198C118.925 96.2443 119.094 96.1695 119.26 96.0829C118.915 96.9738 118.347 97.9325 117.802 98.2446ZM94.2282 83.718C94.2001 84.3071 93.9622 85.0495 93.7085 85.0859C93.6981 85.0868 93.689 85.0893 93.6785 85.0893C93.4725 85.0893 93.4106 84.6388 93.4001 84.5502C93.3134 83.7836 93.4027 82.85 93.6681 81.7702C93.7366 81.4918 93.8128 81.2184 93.8937 80.9457C93.9374 81.2746 93.9889 81.5986 94.0391 81.9159C94.0671 82.0957 94.0958 82.2743 94.1226 82.4517L94.1415 82.579C94.1904 82.9271 94.2451 83.3697 94.2282 83.718ZM63.0794 86.1137C63.032 85.8907 62.9062 85.1361 63.2645 84.8795C63.3232 84.8367 63.3861 84.8158 63.4566 84.8158C63.8588 84.8158 64.4496 85.4583 64.7741 86.2471C65.0591 86.943 65.2423 88.0672 65.4346 89.2562C65.5214 89.7945 65.61 90.3368 65.7111 90.8714C64.6193 89.7362 63.4505 87.8803 63.0794 86.1137ZM80.0176 72.8495C79.2664 75.8073 78.6157 78.3681 77.1761 80.1734C77.0196 80.3085 76.6323 80.5865 76.2235 80.8726C76.6421 78.2646 77.1096 75.8237 78.0706 73.8045C78.8811 72.0977 79.8076 70.7162 80.8808 69.6372C80.562 70.7051 80.2881 71.7845 80.0176 72.8495ZM38.8322 74.5924C38.9168 74.6229 39.0003 74.6376 39.083 74.6376C39.8384 74.6376 40.5137 73.4473 40.7788 72.3967C41.1435 70.9514 40.9698 68.784 41.2344 67.0633C42.1472 66.0258 43.3736 65.1856 44.4016 64.9106C45.9916 64.4844 47.3768 65.3626 48.6819 66.8288C48.5928 67.3642 48.5431 67.9152 48.5382 68.4698C48.5039 72.7202 49.7875 75.5696 51.9735 76.0955C53.2452 76.4014 54.5653 75.8534 55.4175 74.6696C56.1103 73.708 56.4762 72.3937 56.4762 70.8705C56.4762 68.0039 55.0303 65.6734 53.2531 65.6718C51.8938 65.6718 51.3602 67.1166 51.1073 68.3524C50.6693 67.6947 50.1828 66.9959 49.6497 66.3373C50.154 64.4762 51.2373 62.9443 52.448 62.6019C54.6152 61.9856 56.1839 64.4762 57.1183 66.6724C57.425 67.3946 57.6797 68.1887 57.9499 69.0279C58.2766 70.0469 58.6147 71.0992 59.0537 72.012C60.8613 75.7666 63.1574 77.8319 65.5214 77.8319C69.7001 77.8319 73.099 72.3532 73.099 65.6159C73.099 61.4708 71.8094 57.8031 69.8449 55.5921C71.0693 54.9763 72.3551 54.6461 73.6624 54.6461C78.2389 54.6461 82.2585 58.5388 84.521 64.376C84.1852 64.5685 83.8481 64.7759 83.5104 65.0087C80.9395 66.1283 78.6353 68.3085 76.7803 72.2106C74.9012 76.1612 74.6789 81.064 73.7309 85.6489C73.8221 85.2083 77.6664 82.8648 78.1111 82.3178C81.3868 78.3019 81.3333 71.4696 83.9238 66.8538C84.2211 66.3237 84.5523 65.8927 84.907 65.5354C84.9168 65.531 84.9259 65.5248 84.9363 65.5199C85.9091 68.4284 86.4614 71.7499 86.4614 75.2789C86.4614 86.656 80.7198 95.9125 73.6624 95.9125C71.9984 95.9125 70.3678 95.3726 68.8551 94.3806C68.9359 94.3987 69.0168 94.4205 69.097 94.4361C68.9998 94.418 68.9073 94.3901 68.8179 94.3572C68.5278 94.1643 68.2416 93.9602 67.9605 93.7364C67.7675 93.5094 67.6006 93.2392 67.4559 92.9338C66.4831 90.8854 66.4655 87.3015 65.6472 85.3131C65.1999 84.2242 64.321 83.1259 63.4566 83.1259C63.2475 83.1259 63.0397 83.1895 62.8382 83.3344C62.0102 83.9282 61.8154 85.3689 62.0864 86.656C62.502 88.6374 63.6349 90.5836 64.8006 91.9172C67.2479 95.2917 70.3958 97.2222 73.6624 97.2222C81.1677 97.2222 87.2745 87.3786 87.2745 75.2789C87.2745 71.6145 86.7111 68.1603 85.722 65.1204C89.8382 63.237 92.8798 65.0966 94.5079 66.6375C96.3453 68.3771 98.0887 70.9982 99.3686 73.8435C99.1157 73.4831 98.8555 73.1509 98.5947 72.8528C97.0136 71.0529 95.4018 70.3671 95.4018 70.3671C93.5814 69.5911 91.8575 69.9644 90.2607 71.4828C89.4339 72.2681 87.3208 74.4812 88.78 76.105C91.4891 79.1199 93.76 73.9397 96.1679 73.4441C97.5182 73.1661 98.7851 73.5725 99.7618 74.7649C100.152 75.7235 100.488 76.6954 100.754 77.6623C102.059 82.4213 103.683 85.7992 105.823 88.1941C105.672 88.167 105.521 88.1506 105.37 88.1506C105.074 88.1506 104.779 88.2051 104.48 88.3147C103.555 86.9989 102.68 85.3045 101.795 83.107C101.658 82.7649 101.519 82.4119 101.378 82.0514C100.568 79.9763 99.6477 77.6213 98.328 76.2762C97.8064 75.7449 97.1342 75.3832 96.4691 75.3832C95.1104 75.3832 94.5483 76.8358 93.9837 78.5726C93.6792 79.5107 93.3499 80.4259 93.1074 81.4117C92.855 82.4394 92.681 83.6189 92.8068 84.7247C92.8896 85.4527 93.2052 86.0607 93.6785 86.0607C93.7059 86.0607 93.734 86.0578 93.762 86.0533C94.4088 85.961 94.785 84.723 94.8293 83.7935C94.8508 83.3509 94.8006 82.8594 94.727 82.352L94.7472 82.3309C94.7328 82.2969 94.7211 82.2587 94.7087 82.2243C94.6116 81.5734 94.4857 80.8956 94.4277 80.2408C94.4407 79.0164 94.7191 77.7178 95.2088 76.9947C95.557 76.4802 96.0088 76.2647 96.477 76.2647C97.0221 76.2647 97.5886 76.5575 98.0379 77.0156C99.2545 78.2552 100.102 80.4213 100.92 82.517C101.062 82.8795 101.202 83.2372 101.34 83.5825C102.179 85.6636 103.012 87.3166 103.89 88.6337C102.123 89.934 100.497 94.1922 101.248 97.2448C102.165 100.973 104.137 102.339 106.339 102.339C106.969 102.339 107.619 102.227 108.268 102.026C108.268 102.026 102.173 100.715 104.476 93.9475C104.476 93.9475 105.112 90.7055 108.529 90.7055C108.689 90.7055 108.855 90.7171 109.026 90.7318C109.087 90.7577 109.148 90.7794 109.209 90.8057C107.476 91.4598 105.844 92.8307 105.405 95.1829C105.195 96.305 105.24 97.3273 105.535 98.1387C105.837 98.9729 106.388 99.5543 107.127 99.8192C109.661 100.726 111.251 97.6217 112.788 94.6184C113.607 93.0196 114.447 91.3801 115.424 90.3779C115.929 90.1242 116.408 89.8196 116.863 89.475C118.212 89.1868 119.574 90.4374 120.062 92.5503C120.182 93.0746 120.225 93.5899 120.191 94.0949C120.112 94.3191 120.009 94.503 119.886 94.6586C119.258 95.46 118.144 95.5027 117.532 96.1773C117.116 96.6372 116.701 97.6345 116.939 98.4618C117.075 98.9348 117.341 99.145 117.626 99.145C117.743 99.145 117.862 99.1093 117.978 99.0432C118.595 98.6897 119.194 97.7474 119.599 96.7866C120.434 95.4284 120.675 93.9569 120.315 92.3971C119.857 90.4115 118.69 89.1244 117.435 89.0066C122.005 84.9981 123.978 76.633 124.701 72.4981C125.423 76.633 127.397 84.9981 131.967 89.0066C130.71 89.1244 129.544 90.4115 129.085 92.3971C128.726 93.9569 128.967 95.4284 129.801 96.7866C130.208 97.7474 130.806 98.6897 131.424 99.0432C131.539 99.1093 131.658 99.145 131.775 99.145C132.059 99.145 132.326 98.9348 132.462 98.4618C132.699 97.6345 132.286 96.6372 131.868 96.1773C131.257 95.5027 130.144 95.46 129.514 94.6586C129.392 94.503 129.289 94.3191 129.211 94.0949C129.177 93.5899 129.219 93.0746 129.34 92.5503C129.827 90.4374 131.188 89.1868 132.538 89.475C132.993 89.8196 133.472 90.1242 133.977 90.3779C134.954 91.3801 135.795 93.0196 136.612 94.6184C138.15 97.6217 139.739 100.726 142.274 99.8192C143.013 99.5543 143.563 98.9729 143.866 98.1387C144.161 97.3273 144.206 96.305 143.996 95.1829C143.556 92.8307 141.924 91.4598 140.192 90.8057C140.253 90.7794 140.314 90.7577 140.375 90.7318C140.545 90.7171 140.712 90.7055 140.871 90.7055C144.29 90.7055 144.925 93.9475 144.925 93.9475C147.228 100.715 141.133 102.026 141.133 102.026C141.782 102.227 142.431 102.339 143.063 102.339C145.264 102.339 147.236 100.973 148.152 97.2448C148.904 94.1922 147.277 89.934 145.511 88.6337C146.389 87.3166 147.222 85.6636 148.06 83.5825C148.199 83.2372 148.339 82.8795 148.481 82.517C149.299 80.4213 150.146 78.2552 151.363 77.0156C151.812 76.5575 152.379 76.2647 152.924 76.2647C153.392 76.2647 153.844 76.4802 154.192 76.9947C154.682 77.7178 154.961 79.0164 154.973 80.2408C154.915 80.8956 154.789 81.5734 154.693 82.2243C154.679 82.2587 154.668 82.2969 154.654 82.3309L154.673 82.352C154.601 82.8594 154.55 83.3509 154.571 83.7935C154.616 84.723 154.992 85.961 155.639 86.0533C155.667 86.0578 155.695 86.0607 155.722 86.0607C156.195 86.0607 156.511 85.4527 156.594 84.7247C156.72 83.6189 156.546 82.4394 156.293 81.4117C156.051 80.4259 155.721 79.5107 155.417 78.5726C154.852 76.8358 154.29 75.3832 152.931 75.3832C152.266 75.3832 151.594 75.7449 151.073 76.2762C149.753 77.6213 148.834 79.9763 148.022 82.0514C147.882 82.4119 147.743 82.7649 147.606 83.107C146.721 85.3045 145.847 86.9989 144.92 88.3147C144.622 88.2051 144.326 88.1506 144.032 88.1506C143.88 88.1506 143.728 88.167 143.578 88.1941C145.718 85.7992 147.342 82.4213 148.647 77.6623C148.912 76.6954 149.25 75.7235 149.639 74.7649C150.616 73.5725 151.883 73.1661 153.233 73.4441C155.641 73.9397 157.912 79.1199 160.621 76.105C162.08 74.4812 159.967 72.2681 159.141 71.4828C157.543 69.9644 155.819 69.5911 153.999 70.3671C153.999 70.3671 152.387 71.0529 150.807 72.8528C150.545 73.1509 150.286 73.4831 150.032 73.8435C151.312 70.9982 153.055 68.3771 154.893 66.6375C156.521 65.0966 159.562 63.237 163.679 65.1204C162.689 68.1603 162.127 71.6145 162.127 75.2789C162.127 87.3786 168.232 97.2222 175.738 97.2222C179.006 97.2222 182.153 95.2917 184.6 91.9172C185.766 90.5836 186.899 88.6374 187.315 86.656C187.585 85.3689 187.391 83.9282 186.562 83.3344C186.361 83.1895 186.153 83.1259 185.944 83.1259C185.08 83.1259 184.2 84.2242 183.753 85.3131C182.935 87.3015 182.918 90.8854 181.945 92.9338C181.801 93.2392 181.633 93.5094 181.44 93.7364C181.16 93.9602 180.873 94.1643 180.583 94.3572C180.494 94.3901 180.401 94.418 180.304 94.4361C180.384 94.4205 180.465 94.3987 180.546 94.3806C179.033 95.3726 177.402 95.9125 175.738 95.9125C168.68 95.9125 162.938 86.656 162.938 75.2789C162.938 71.7499 163.492 68.4284 164.464 65.5199C164.475 65.5248 164.485 65.531 164.494 65.5354C164.848 65.8927 165.18 66.3237 165.478 66.8538C168.067 71.4696 168.015 78.3019 171.29 82.3178C171.735 82.8648 175.58 85.2083 175.67 85.6489C174.722 81.064 174.499 76.1612 172.62 72.2106C170.766 68.3085 168.462 66.1283 165.89 65.0087C165.553 64.7759 165.215 64.5685 164.879 64.376C167.143 58.5388 171.162 54.6461 175.738 54.6461C177.046 54.6461 178.331 54.9763 179.556 55.5921C177.591 57.8031 176.302 61.4708 176.302 65.6159C176.302 72.3532 179.701 77.8319 183.881 77.8319C186.243 77.8319 188.54 75.7666 190.347 72.012C190.787 71.0992 191.124 70.0469 191.452 69.0279C191.721 68.1887 191.976 67.3946 192.283 66.6724C193.217 64.4762 194.786 61.9856 196.953 62.6019C198.163 62.9443 199.247 64.4762 199.751 66.3373C199.218 66.9959 198.731 67.6947 198.293 68.3524C198.04 67.1166 197.508 65.6718 196.149 65.6718C194.371 65.6734 192.925 68.0039 192.925 70.8705C192.925 72.3937 193.29 73.708 193.984 74.6696C194.836 75.8534 196.155 76.4014 197.427 76.0955C199.613 75.5696 200.897 72.7202 200.862 68.4698C200.858 67.9152 200.808 67.3642 200.719 66.8288C202.025 65.3626 203.409 64.4844 204.999 64.9106C206.028 65.1856 207.255 66.0258 208.167 67.0633C208.431 68.784 208.257 70.9514 208.623 72.3967C208.887 73.4473 209.562 74.6376 210.318 74.6376C210.401 74.6376 210.485 74.6229 210.569 74.5924C211.255 74.3453 211.539 73.3 211.455 72.2534C211.291 70.1935 210.227 67.8824 209.241 66.6091C208.933 66.2134 208.591 65.8701 208.235 65.5667C207.283 64.6166 206.144 63.8907 205.133 63.6189C203.337 63.1365 201.757 64.1395 200.427 65.5606C199.793 63.4194 198.532 61.7188 197.094 61.311C194.503 60.5785 192.681 63.4186 191.613 65.9321C191.277 66.72 190.999 67.588 190.729 68.4263C190.405 69.4368 190.099 70.3906 189.706 71.2093C188.75 73.1923 186.722 76.5234 183.881 76.5234C180.15 76.5234 177.115 71.631 177.115 65.6159C177.115 61.5697 178.49 58.0338 180.525 56.1509C181.745 56.9454 182.887 58.0391 183.909 59.4031C183.512 59.4096 183.11 59.5533 182.714 59.8391C181.464 60.7416 180.588 62.8655 180.585 65.003C180.583 66.8608 181.038 68.621 181.867 69.9598C182.655 71.2334 183.707 71.9627 184.756 71.9627C186.208 71.9627 187.765 70.7404 188.818 68.7737C190.403 65.8113 190.141 61.6567 189.436 58.9978C188.533 55.5966 186.352 53.3988 183.881 53.3988C182.654 53.3988 181.496 53.8747 180.469 54.7123C178.97 53.8147 177.37 53.3347 175.738 53.3347C170.801 53.3347 166.469 57.5961 164.083 63.9556C162.775 63.3274 161.484 63.0046 160.23 63.0046C158.19 63.0046 156.245 63.8369 154.481 65.5076C152.939 66.9668 151.459 69.0209 150.239 71.3176C150.305 71.1309 150.343 71.0216 150.343 71.0216C150.343 71.0216 148.939 53.8947 155.354 59.0126C154.028 57.9566 152.63 57.0583 151.12 57.5698C148.523 58.4514 147.563 62.8905 147.28 66.6625C147.055 69.6721 148.019 74.5792 147.695 77.8681C147.498 78.5405 147.295 79.1811 147.084 79.7949C147.647 76.5973 147.539 73.2421 146.727 70.1783C144.775 62.8023 137.607 58.5093 133.977 64.9389C133.039 66.6018 132.14 69.0479 131.737 71.2109C131.529 72.3306 130.458 76.9557 129.169 76.9557C128.964 76.9557 128.752 76.8379 128.536 76.5677C129.355 77.5974 130.355 78.0914 131.358 78.0914C132.548 78.0914 133.741 77.3951 134.634 76.0759C136.316 73.5873 136.747 69.5386 138.379 67.0439C139.299 65.6377 140.32 65.003 141.365 65.003C141.633 65.003 141.905 65.0456 142.175 65.129C142.812 65.7186 143.463 66.3648 144.053 67.0875C142.205 66.6987 140.17 69.2972 139.553 71.7229C138.995 73.9154 138.774 78.1537 137.41 79.5354C139.721 77.1942 141.408 77.8799 142.168 73.045C142.669 69.856 143.681 68.3927 145.625 69.6495C145.765 69.9837 145.884 70.3314 145.979 70.6936C147.022 74.6315 146.792 79.1083 145.348 82.9764C144.628 84.9028 143.679 86.4971 142.593 87.6694C142.548 87.7149 142.505 87.7609 142.458 87.806L142.461 87.811C141.35 88.9647 140.101 89.6799 138.812 89.8552C134.066 90.4966 130.331 87.3597 127.707 80.5307C125.723 75.3675 125.151 69.9213 125.146 69.8679L124.701 69.9845L124.255 69.8679C124.25 69.9213 123.678 75.3675 121.694 80.5307C119.069 87.3597 115.335 90.4966 110.59 89.8552C109.299 89.6799 108.052 88.9647 106.94 87.811L106.942 87.806C106.897 87.7609 106.853 87.7149 106.808 87.6694C105.722 86.4971 104.773 84.9028 104.053 82.9764C102.608 79.1083 102.379 74.6315 103.422 70.6936C103.517 70.3314 103.636 69.9837 103.776 69.6495C105.72 68.3927 106.732 69.856 107.233 73.045C107.993 77.8799 109.68 77.1942 111.992 79.5354C110.626 78.1537 110.406 73.9154 109.848 71.7229C109.23 69.2972 107.196 66.6987 105.348 67.0875C105.938 66.3648 106.588 65.7186 107.226 65.129C107.497 65.0456 107.767 65.003 108.036 65.003C109.081 65.003 110.102 65.6377 111.022 67.0439C112.655 69.5386 113.084 73.5873 114.767 76.0759C115.66 77.3951 116.853 78.0914 118.043 78.0914C119.046 78.0914 120.046 77.5974 120.864 76.5677C120.649 76.8379 120.437 76.9557 120.232 76.9557C118.943 76.9557 117.871 72.3306 117.663 71.2109C117.261 69.0479 116.362 66.6018 115.424 64.9389C111.795 58.5093 104.626 62.8023 102.674 70.1783C101.863 73.2421 101.754 76.5973 102.317 79.7949C102.106 79.1811 101.902 78.5405 101.706 77.8681C101.382 74.5792 102.346 69.6721 102.121 66.6625C101.838 62.8905 100.878 58.4514 98.2804 57.5698C96.771 57.0583 95.3725 57.9566 94.0469 59.0126C100.462 53.8947 99.0576 71.0216 99.0576 71.0216C99.0576 71.0216 99.0961 71.1309 99.1613 71.3176C97.9407 69.0209 96.4613 66.9668 94.92 65.5076C93.1556 63.8369 91.2113 63.0046 89.1705 63.0046C87.9167 63.0046 86.6257 63.3274 85.3178 63.9556C82.9308 57.5961 78.6001 53.3347 73.6624 53.3347C72.031 53.3347 70.431 53.8147 68.932 54.7123C67.9058 53.8747 66.7478 53.3988 65.5214 53.3988C63.0489 53.3988 60.8681 55.5966 59.9656 58.9978C59.2598 61.6567 58.998 65.8113 60.5831 68.7737C61.6358 70.7404 63.1925 71.9627 64.6455 71.9627C65.6939 71.9627 66.7465 71.2334 67.5341 69.9598C68.3635 68.621 68.8186 66.8608 68.816 65.003C68.8134 62.8655 67.9377 60.7416 66.6865 59.8391C66.2914 59.5533 65.8884 59.4096 65.4927 59.4031C66.5137 58.0391 67.6567 56.9454 68.8753 56.1509C70.9115 58.0338 72.2866 61.5697 72.2866 65.6159C72.2866 71.631 69.2522 76.5234 65.5214 76.5234C62.679 76.5234 60.6511 73.1923 59.6953 71.2093C59.3021 70.3906 58.9954 69.4368 58.6717 68.4263C58.4022 67.588 58.1234 66.72 57.7882 65.9321C56.7187 63.4186 54.8979 60.5785 52.3072 61.311C50.8695 61.7188 49.6082 63.4194 48.9742 65.5606C47.643 64.1395 46.0631 63.1365 44.2676 63.6189C43.2572 63.8907 42.1177 64.6166 41.1654 65.5667C40.8101 65.8701 40.4678 66.2134 40.1599 66.6091C39.174 67.8824 38.1099 70.1935 37.9453 72.2534C37.8618 73.3 38.1463 74.3453 38.8322 74.5924Z" fill="black"/>
<path fill-rule="evenodd" clip-rule="evenodd" d="M24.787 46.6936C24.803 46.6928 24.7719 46.5692 24.7879 46.5683C46.342 45.6987 192.819 45.6691 224.617 46.6932V46.8254C190.627 47.9472 56.609 48.0371 24.787 46.6936Z" fill="black"/>
<path fill-rule="evenodd" clip-rule="evenodd" d="M108.567 32.0935C107.738 35.2454 106.362 39.0531 104.191 39.3024C103.324 39.3024 102.676 38.9673 101.968 38.124C101.25 37.2076 100.723 35.9557 100.723 34.4369C100.723 33.3169 101.012 32.178 101.506 31.3802C102.417 29.9864 103.577 29.4604 104.813 29.4604C105.632 29.4604 106.38 29.639 107.174 29.9711C107.181 29.9737 107.186 29.9765 107.193 29.9806L107.296 30.043C107.944 27.254 108.401 24.4325 108.81 21.5289L108.878 19.5405C108.959 17.9626 109.063 16.3851 109.173 14.8123C109.301 12.9687 109.44 11.1265 109.588 9.28669C109.613 8.98619 109.741 7.13609 109.814 6.69559C109.972 5.422 111.4 6.60488 111.492 7.71712C111.493 7.7331 111.493 7.74666 111.493 7.76305C111.467 9.72026 111.348 11.7468 111.244 13.6992C111.141 15.6285 111.03 17.5586 110.905 19.4847C110.828 20.6807 110.569 21.9194 110.526 23.0977C110.408 25.4519 110.335 27.7983 110.284 30.1583C110.227 32.7339 110.18 35.3128 110.18 37.8904C110.18 39.6 110.174 41.338 110.285 43.0615C110.313 44.6136 110.385 46.274 110.588 47.7836C110.667 48.223 110.835 49.3889 110.973 49.7951L110.977 49.8007C110.988 49.8061 111 49.8131 111.011 49.8225C111.255 50.0196 111.568 50.4585 111.655 50.8777C111.836 51.6578 111.468 51.9575 111.018 51.8245C110.612 51.6463 110.2 51.1815 109.926 50.6749C109.406 49.717 109.124 48.3695 108.985 47.1418C108.774 45.5098 108.666 43.8006 108.636 42.1419C108.561 40.4499 108.533 38.7509 108.533 37.0549C108.533 35.5509 108.567 34.047 108.567 32.543V32.0935ZM119.733 35.2741C118.449 37.0564 116.395 39.3024 114.729 39.3024C114.245 39.3024 113.796 39.1192 113.374 38.6856C112.702 37.8731 112.264 36.76 112.264 35.3842C112.264 33.8297 112.811 32.5841 113.59 31.7391C114.587 30.6564 115.817 30.1843 117.01 30.1843C117.952 30.1843 118.904 30.4921 119.773 31.0801L120.275 29.9851C120.621 29.0458 122.061 30.5522 121.741 31.5486C121.546 32.4827 121.267 33.3563 121.202 34.3467C121.174 35.119 121.289 36.1372 121.817 36.3737C123.563 36.9259 126.488 33.9788 127.625 31.9423C127.786 31.6821 128.044 31.4324 128.272 31.634C128.601 31.9242 128.465 32.7253 128.351 33.156C128.094 34.1356 127.552 35.13 127.091 35.8728C126.087 37.4929 123.64 39.12 122.219 38.5699C121.037 38.1124 120.204 37.0339 119.733 35.2741V35.2741ZM103.456 37.2026C105.018 36.9349 106.076 34.058 106.741 31.9514C106.365 31.882 105.984 31.8385 105.608 31.8385C104.66 31.8385 103.59 32.0724 102.909 33.2475C102.571 33.8323 102.337 34.5717 102.337 35.3842C102.337 35.8408 102.429 36.4742 102.687 36.7732C102.915 37.0885 103.159 37.2002 103.456 37.2026V37.2026ZM114.103 36.9226C115.654 36.597 117.68 34.5511 118.86 32.7069C118.536 32.6033 118.189 32.5623 117.873 32.5623C116.471 32.5623 114.05 33.3859 113.665 35.9553C113.582 36.508 113.758 36.8746 114.103 36.9226" fill="url(#paint2_linear_545:137)"/>
</g>
<defs>
<linearGradient id="paint0_linear_545:137" x1="185.952" y1="54.5085" x2="185.952" y2="0" gradientUnits="userSpaceOnUse">
<stop offset="0.151042" stop-opacity="0.59"/>
<stop offset="0.4375" stop-color="#FA851A"/>
</linearGradient>
<linearGradient id="paint1_linear_545:137" x1="46.0873" y1="57.25" x2="46.0873" y2="2.1106" gradientUnits="userSpaceOnUse">
<stop offset="0.151042" stop-opacity="0.59"/>
<stop offset="0.4375" stop-color="#FA851A"/>
</linearGradient>
<linearGradient id="paint2_linear_545:137" x1="114.601" y1="51.855" x2="114.601" y2="6.14404" gradientUnits="userSpaceOnUse">
<stop offset="0.151042" stop-opacity="0.59"/>
<stop offset="0.4375" stop-color="#FA851A"/>
</linearGradient>
</defs>
</svg>
