<svg width="154" height="138" viewBox="0 0 154 138" fill="none" xmlns="http://www.w3.org/2000/svg">
<path d="M113.882 0.982683C110.59 2.76264 107.654 7.65752 107.654 11.4844C107.654 16.2013 110.857 20.5622 115.483 22.1642C120.554 23.9441 125.804 22.1642 128.829 17.7143C131.854 13.2644 131.231 7.03454 127.405 3.29663C124.291 0.0927048 117.707 -0.975269 113.882 0.982683ZM124.825 5.07658C127.494 7.47952 128.295 10.4165 127.227 13.7984C125.982 17.5363 123.313 19.4942 119.398 19.4942C115.216 19.4942 113.081 18.0703 111.568 14.4214C110.323 11.6624 110.412 11.0394 111.835 8.10251C114.505 2.58464 120.554 1.16068 124.825 5.07658Z" fill="black"/>
<path d="M134.79 20.2952C129.096 21.7191 125.092 25.2791 123.224 30.797C121.622 35.4249 119.22 35.6919 117.174 31.5089C113.081 22.7871 100.536 22.7871 96.3545 31.5089L94.931 34.5349L68.0621 34.8019L41.1931 35.0689L37.9902 37.5608C32.1182 42.0108 31.5843 43.7907 31.3174 61.7684L30.9616 77.7881L27.0469 77.4321C21.6197 77.0761 19.2175 77.7881 15.4808 81.0811C8.18522 87.5779 7.82934 97.7238 14.769 104.221C19.6624 108.76 27.3138 109.828 32.8299 106.891C35.8549 105.289 35.9439 105.289 39.3247 107.425C41.1931 108.76 42.7056 110.451 42.7056 111.341C42.7056 117.481 48.3997 122.732 55.0724 122.732C58.3643 122.732 59.432 122.198 62.368 119.261C64.9481 116.769 65.8378 115.078 65.8378 113.031V110.273H93.6854C122.334 110.273 126.337 109.828 131.053 106.535C136.213 102.797 136.569 101.284 137.014 75.5632L137.459 51.9786L140.662 51.5336C151.16 49.7536 157.21 37.7388 152.228 28.394C149.114 22.4311 141.195 18.7822 134.79 20.2952ZM143.598 24.3001C153.295 28.305 153.295 42.4558 143.598 47.0837C129.096 54.1145 118.152 33.1999 131.943 24.8341C135.323 22.7871 139.505 22.6091 143.598 24.3001ZM109.967 28.839C114.326 30.619 116.195 35.1579 114.415 39.4298C112.102 44.9477 104.718 46.8167 101.159 42.8117C96.8884 38.0948 97.956 31.242 103.383 28.839C107.031 27.237 106.319 27.237 109.967 28.839ZM96.2656 40.8538C100.18 50.1986 113.348 50.1986 117.263 40.8538C119.22 36.3149 122.245 35.8699 123.135 40.0528C123.935 44.0577 126.871 47.7957 130.875 49.7536L134.345 51.5336V74.0502C134.345 95.5878 134.256 96.5668 132.298 99.9487C128.473 106.624 127.939 106.713 94.931 106.713H65.7488L62.8128 103.687C61.2114 101.996 58.8982 100.305 57.5636 100.038C53.7379 99.0587 48.8445 100.394 46.0865 103.242C43.0615 106.268 42.8835 106.268 40.2144 104.399C38.435 103.153 38.3461 102.886 39.5027 100.661C42.7056 94.3418 41.9049 87.5779 37.3674 82.327L34.6983 79.3011V62.9254C34.6983 47.3507 34.7873 46.2827 36.7446 43.5237C40.8372 37.5608 41.9938 37.2938 69.8415 37.2938H94.7531L96.2656 40.8538ZM32.563 82.238C39.8586 87.0439 40.1255 97.9907 33.0079 103.064C27.5807 106.98 21.1748 106.268 16.4594 101.373C14.4131 99.2367 13.7903 97.7238 13.5234 93.5408C13.1675 88.9129 13.4345 88.1119 15.6587 85.442C20.1962 80.0131 27.2248 78.6781 32.563 82.238ZM60.2327 105.289C62.19 106.98 62.7239 108.137 62.7239 110.985C62.7239 117.57 56.407 121.664 50.8019 118.816C47.51 117.036 46.2644 114.9 46.2644 110.718C46.2644 103.776 54.7166 100.483 60.2327 105.289Z" fill="black"/>
<path d="M48.3107 45.7488C44.3071 48.1518 40.5703 54.4706 41.1042 57.8526C41.549 60.7895 43.4174 60.9675 44.0402 58.0306C45.0189 53.5807 47.421 49.6647 50.1791 48.1518C52.4034 46.9058 56.3181 46.5498 69.2187 46.1938C91.0164 45.5708 90.7495 44.0578 68.7739 43.7018C52.3144 43.5238 51.9585 43.5238 48.3107 45.7488Z" fill="black"/>
<path d="M124.558 86.777C124.558 90.159 121.444 94.6979 117.974 96.3888C115.572 97.5458 111.835 97.8128 99.3796 97.8128C88.8811 97.8128 83.5429 98.1688 83.0981 98.7918C81.8525 100.928 85.5002 101.462 100.536 101.195C113.615 100.928 116.64 100.661 119.487 99.2368C123.49 97.2788 126.871 92.5619 127.672 87.756C128.295 84.8191 128.117 84.4631 126.426 84.4631C125.003 84.4631 124.558 84.9971 124.558 86.777Z" fill="black"/>
<path d="M6.49481 54.6487C2.84704 56.2507 0 60.7896 0 65.1505C0 77.2542 16.2815 80.9921 21.7977 70.2234C24.5557 64.7945 22.3315 57.8527 16.8153 54.9157C13.2565 53.0468 10.4095 52.9578 6.49481 54.6487ZM17.0822 59.2766C22.1535 64.0825 19.3065 72.3593 12.2779 73.5163C9.34185 73.9613 8.63009 73.6943 5.78305 70.8464C2.40219 67.4644 1.95734 65.2395 4.00365 61.3236C6.67275 56.2507 12.9007 55.2717 17.0822 59.2766Z" fill="black"/>
<path d="M24.3778 116.414C20.1962 118.994 18.6837 121.664 18.6837 126.292C18.7727 131.098 20.1072 133.768 23.666 136.171C32.652 142.134 44.8409 132.433 40.6593 122.643C37.7233 115.702 30.0719 112.765 24.3778 116.414ZM35.9439 121.041C41.9939 128.25 34.4314 138.307 26.2462 133.946C20.819 131.009 19.8403 125.046 23.9329 120.863C27.6697 117.125 32.741 117.214 35.9439 121.041Z" fill="black"/>
</svg>
