<svg width="79" height="129" viewBox="0 0 79 129" fill="none" xmlns="http://www.w3.org/2000/svg">
<path d="M33.5604 0.575932C23.9077 2.81763 17.2198 10.9797 18.1161 19.3143C18.7366 25.522 23.2872 31.27 29.5614 33.9715L32.733 35.2936L32.5262 39.4896C32.3883 42.536 32.5951 44.0879 33.2846 44.8926C34.1809 45.8698 34.1809 46.2147 33.2846 47.6516C32.6641 48.6863 32.3883 50.6406 32.4572 53.0547L32.5951 56.7909L27.493 58.2279C13.5656 62.0215 3.63708 72.023 1.29286 84.3811C0.189699 90.3014 0.879176 101.395 2.67182 106.108C5.84341 114.385 13.4277 121.915 22.3909 125.594C44.0404 134.503 69.3443 125.249 76.7217 105.821C78.0317 102.372 78.2385 100.533 78.2385 92.6006C78.2385 84.3811 78.0317 82.9441 76.5838 79.1504C72.6537 69.149 63.8974 61.7341 52.1763 58.3428L46.6605 56.7334L46.7983 52.9972C46.8673 50.6406 46.5915 48.6863 45.971 47.6516C45.0747 46.2147 45.0747 45.8698 45.971 44.8926C46.6605 44.0879 46.8673 42.536 46.7294 39.4896L46.5226 35.2936L49.6942 33.9715C53.4863 32.3046 57.5542 28.6834 59.4847 25.1197C61.76 20.9812 61.6221 14.3135 59.071 10.0026C56.8647 6.32388 52.8657 2.99007 48.522 1.43812C44.592 -0.056343 37.7662 -0.4587 33.5604 0.575932ZM46.5915 5.17429C53.3484 7.76087 57.0716 13.3364 56.3131 19.5442C55.4168 26.8441 48.591 31.9597 39.6278 31.9597C34.3878 31.9597 30.8025 30.5802 27.0793 27.2464C22.9424 23.4528 21.7014 18.6245 23.563 13.5088C25.4246 8.27819 32.802 3.79478 39.6278 3.79478C41.8341 3.79478 44.3852 4.3121 46.5915 5.17429ZM41.2825 36.788C41.7652 37.2479 42.041 38.9148 41.9031 40.6966C41.6962 43.6856 41.6273 43.743 39.6278 43.743C37.6283 43.743 37.5594 43.6856 37.3525 40.6966C37.1457 37.5927 37.9041 35.9833 39.6278 35.9833C40.1104 35.9833 40.8688 36.3282 41.2825 36.788ZM41.2136 48.7438C42.5236 49.8359 42.2478 55.3539 40.8688 56.0437C38.5246 57.0783 37.2146 55.8137 37.2146 52.4799C37.2146 49.5485 38.042 48.054 39.6278 48.054C40.0415 48.054 40.731 48.3414 41.2136 48.7438ZM44.7989 60.6995C53.831 61.9066 62.8632 66.7348 67.7585 72.8852C76.7217 84.2661 75.2738 98.1187 64.1042 108.063C50.7284 119.961 28.5272 119.961 15.1514 108.063C3.98182 98.1187 2.53392 84.2661 11.4971 72.8852C17.2198 65.7002 27.9756 60.6995 38.9383 60.1822C39.6967 60.1822 42.3167 60.4121 44.7989 60.6995ZM22.253 117.317C27.424 119.444 34.8704 121.053 39.6278 121.053C48.3841 121.053 59.4847 117.259 66.1727 111.971C68.4479 110.132 70.3095 108.81 70.3095 109.04C70.3095 109.959 65.759 114.903 62.5184 117.432C49.6252 127.606 29.6304 127.606 16.7371 117.432C13.4966 114.903 8.94606 109.959 8.94606 109.04C8.94606 108.81 10.8076 110.132 13.0829 111.971C15.4961 113.868 19.3572 116.11 22.253 117.317Z" fill="#FA851A"/>
<path d="M33.7673 7.01368C28.4583 8.9105 25.4935 12.8191 25.4935 17.9348C25.4935 21.9009 26.9414 24.4875 30.4578 27.074C36.3873 31.27 44.8679 30.8677 49.901 26.2118C53.0726 23.2804 53.7621 21.7859 53.7621 17.8198C53.7621 10.9223 47.7637 6.03652 39.4899 6.094C37.6973 6.15148 35.0773 6.55384 33.7673 7.01368ZM42.1789 10.1176C45.3505 10.8648 48.591 13.9112 49.2116 16.6702C49.97 19.8891 47.4879 23.7402 43.8336 25.1197C42.2478 25.6945 40.3862 26.2118 39.6278 26.2118C38.8694 26.2118 37.0078 25.6945 35.422 25.1197C31.7678 23.7402 29.2857 19.8891 30.0441 16.6702C30.8025 13.2215 34.7325 10.2325 39.2831 9.60026C39.4899 9.54278 40.7999 9.83018 42.1789 10.1176Z" fill="#FA851A"/>
<path d="M22.1839 74.0922C18.8054 77.0811 21.3565 82.5417 26.1828 82.5417C28.7339 82.5417 32.3881 79.8401 32.3881 77.9433C32.3881 76.2764 30.5955 73.5748 29.2855 73.115C26.8034 72.3678 23.6318 72.7701 22.1839 74.0922ZM27.5618 77.7134C27.5618 78.5181 26.1139 78.8055 25.2865 78.1157C24.666 77.5984 26.1828 76.1614 26.9412 76.5638C27.286 76.7362 27.5618 77.2535 27.5618 77.7134Z" fill="#FA851A"/>
<path d="M42.3858 84.3811C40.5242 86.3929 38.9384 88.1173 38.7315 88.2897C38.5936 88.4621 37.6284 87.7149 36.5942 86.6228C35.3531 85.3582 34.2499 84.7834 33.3536 84.9559C31.6299 85.1858 20.6672 97.2565 20.6672 98.9235C20.6672 99.6707 21.1499 100.418 21.7704 100.59C22.3909 100.763 31.6299 100.935 42.3858 100.935C59.209 100.935 62.1048 100.82 63.0011 100.016C64.449 98.866 64.2422 98.5211 55.3479 88.6921C50.7284 83.6338 47.7637 80.8173 46.9363 80.8173C46.2468 80.8173 44.3163 82.3118 42.3858 84.3811ZM51.7626 96.7967C49.0737 96.9117 44.73 96.9117 42.041 96.7967L37.2836 96.6243L42.11 91.2786L47.0053 85.933L51.7626 91.2786L56.589 96.6243L51.7626 96.7967ZM35.1462 92.0259C35.1462 92.3708 34.112 93.6928 32.871 94.8424C31.3541 96.3943 30.182 96.9691 29.1478 96.8542C27.7688 96.6243 27.8378 96.4518 30.5268 93.3479C32.6641 90.9912 33.6294 90.3015 34.3189 90.7038C34.7326 91.0487 35.1462 91.6235 35.1462 92.0259Z" fill="#FA851A"/>
</svg>
