<svg width="181" height="169" viewBox="0 0 181 169" fill="none" xmlns="http://www.w3.org/2000/svg">
<path d="M1.99707 0.153958C1.11094 0.475947 0.281982 1.52973 0.281982 2.32007C0.281982 3.43239 1.79698 4.74962 2.82603 4.48617C4.02659 4.19346 4.5697 3.49093 4.5697 2.29079C4.5697 0.827208 3.22622 -0.285117 1.99707 0.153958Z" fill="#FA851A"/>
<path d="M177.364 0.300283C176.478 0.797917 176.078 1.44191 176.078 2.43718C176.078 4.04718 177.736 4.9839 179.193 4.19354C180.823 3.34463 180.737 1.09064 179.079 0.358828C177.936 -0.109534 178.079 -0.109534 177.364 0.300283Z" fill="#FA851A"/>
<path d="M176.049 9.57978C174.591 10.78 175.563 13.4145 177.478 13.4145C179.336 13.4145 180.194 10.8092 178.765 9.63832C177.821 8.87724 176.907 8.84796 176.049 9.57978Z" fill="#FA851A"/>
<path d="M1.71115 9.9018C0.910776 10.7215 0.967946 12.0973 1.85408 12.9755C3.22615 14.4099 5.25567 13.5317 5.25567 11.5118C5.25567 9.57979 3.02605 8.55522 1.71115 9.9018Z" fill="#FA851A"/>
<path d="M174.449 17.8054C173.677 18.1274 173.219 18.9764 173.219 20.0887C173.219 21.4938 174.62 22.372 176.021 21.8744C176.821 21.5817 177.507 20.5864 177.507 19.7082C177.507 19.152 176.335 17.8933 175.649 17.7176C175.335 17.6298 174.792 17.6591 174.449 17.8054Z" fill="#FA851A"/>
<path d="M4.25538 18.1861C2.48311 19.5911 3.22632 22.1964 5.42735 22.1964C6.71367 22.1964 7.51405 21.4061 7.51405 20.0888C7.51405 18.4495 5.45594 17.2493 4.25538 18.1861Z" fill="#FA851A"/>
<path d="M8.00003 26.3825C6.91381 26.9387 6.45645 28.1389 6.91381 29.1342C7.65701 30.7442 9.97238 30.7442 10.8299 29.1927C11.4016 28.1096 10.8299 26.7338 9.65795 26.3239C9.17201 26.1483 8.77182 26.0019 8.74324 26.0019C8.71465 26.0019 8.40022 26.1776 8.00003 26.3825Z" fill="#FA851A"/>
<path d="M170.418 26.4702C169.961 26.7922 169.789 27.202 169.789 28.0217C169.789 29.6903 171.075 30.627 172.59 30.0708C173.391 29.8074 174.077 28.7828 174.077 27.9339C174.077 27.7289 173.819 27.202 173.476 26.7629C172.79 25.8847 171.418 25.7383 170.418 26.4702Z" fill="#FA851A"/>
<path d="M12.173 34.3447C10.2864 36.1303 12.516 38.9991 14.8599 37.7111C16.0319 37.0671 15.8604 34.7252 14.5455 34.052C13.4307 33.4665 13.0591 33.4958 12.173 34.3447Z" fill="#FA851A"/>
<path d="M165.644 34.1982C165.359 34.5202 165.13 35.1935 165.13 35.6911C165.13 37.6817 167.531 38.5599 168.846 37.0084C169.646 36.0424 169.675 35.3691 168.903 34.3738C168.16 33.4078 166.445 33.2907 165.644 34.1982Z" fill="#FA851A"/>
<path d="M160.728 40.6384C158.727 41.4581 159.441 44.7367 161.614 44.7367C163.643 44.7367 164.587 42.2192 163.043 40.9604C162.214 40.2871 161.728 40.2286 160.728 40.6384Z" fill="#FA851A"/>
<path d="M17.6899 41.1947C16.2035 42.4241 17.2325 45.0002 19.2049 45.0294C20.2625 45.0294 21.5488 43.4487 21.2916 42.4241C20.92 40.7556 19.0048 40.1115 17.6899 41.1947Z" fill="#FA851A"/>
<path d="M154.296 46.9319C152.81 47.7809 152.867 49.9179 154.382 50.679C155.44 51.1767 156.755 50.884 157.212 50.0057C158.27 47.9858 156.24 45.8488 154.296 46.9319Z" fill="#FA851A"/>
<path d="M24.007 47.3709C23.2067 48.1906 23.2638 49.742 24.0928 50.5324C24.9789 51.4106 26.1509 51.3521 27.0656 50.4153C27.6373 49.8299 27.7516 49.5079 27.6087 48.7468C27.2657 46.9318 25.2076 46.1415 24.007 47.3709Z" fill="#FA851A"/>
<path d="M31.0106 52.7865C30.2388 53.5476 30.1245 54.3673 30.6104 55.3626C31.0678 56.2408 31.4108 56.4458 32.497 56.4458C33.5546 56.4458 34.5837 55.3334 34.5837 54.1917C34.5837 53.2549 33.3831 52.0547 32.4398 52.0547C32.0397 52.0547 31.3822 52.3767 31.0106 52.7865Z" fill="#FA851A"/>
<path d="M146.95 52.6111C146.064 53.5185 146.15 55.0699 147.093 55.8309C148.465 56.9433 150.094 56.3285 150.523 54.5137C150.98 52.6696 148.293 51.2353 146.95 52.6111Z" fill="#FA851A"/>
<path d="M38.3851 57.4996C37.8134 58.0851 37.699 58.4071 37.842 59.1683C38.185 61.0418 40.1859 61.7444 41.3865 60.4563C42.2726 59.4903 42.2154 58.1144 41.2721 57.3533C40.2431 56.5336 39.2712 56.5922 38.3851 57.4996Z" fill="#FA851A"/>
<path d="M139.404 57.2655C138.632 58.1437 138.775 59.8122 139.661 60.5148C140.633 61.3051 141.29 61.2758 142.234 60.4562C143.177 59.6366 143.291 58.2315 142.491 57.3241C141.805 56.563 140.061 56.5337 139.404 57.2655Z" fill="#FA851A"/>
<path d="M46.9608 60.8367C46.2176 61.1587 45.7317 62.0076 45.7317 63.0028C45.7317 64.8469 48.2757 65.6373 49.4191 64.1737C50.391 62.915 50.1051 61.6563 48.6759 60.8952C47.9613 60.4854 47.8184 60.4854 46.9608 60.8367Z" fill="#FA851A"/>
<path d="M131.629 61.2758C130.257 62.6516 131.171 64.9349 133.115 64.9349C134.03 64.9349 135.202 63.7054 135.202 62.7394C135.202 61.7734 134.001 60.5439 133.058 60.5439C132.658 60.5439 132 60.8659 131.629 61.2758Z" fill="#FA851A"/>
<path d="M54.9643 64.1152C53.5923 64.7885 53.5065 67.1304 54.85 67.8329C56.3936 68.6819 58.0229 67.8329 58.0229 66.1351C58.0229 64.2909 56.5651 63.3248 54.9643 64.1152Z" fill="#FA851A"/>
<path d="M123.225 64.5248C122.139 65.93 122.739 67.5986 124.511 68.0377C126.312 68.5061 127.713 65.7543 126.369 64.3784C125.483 63.471 123.968 63.5588 123.225 64.5248Z" fill="#FA851A"/>
<path d="M62.9685 66.8669C62.3682 67.4816 62.2824 67.8036 62.4254 68.6818C62.6255 69.9698 63.2257 70.4967 64.512 70.4967C66.713 70.4967 67.4276 67.5694 65.4267 66.5449C64.3119 65.9301 63.826 65.9887 62.9685 66.8669Z" fill="#FA851A"/>
<path d="M115.049 66.8374C113.649 68.2426 114.506 70.4967 116.479 70.4967C117.593 70.4967 118.622 69.4135 118.622 68.2426C118.622 67.3058 117.422 66.1056 116.479 66.1056C116.078 66.1056 115.421 66.4276 115.049 66.8374Z" fill="#FA851A"/>
<path d="M71.6293 68.4769C70.1143 69.7063 71.0291 72.2529 73.0014 72.2529C74.9452 72.2529 75.8599 69.999 74.4592 68.594C73.6017 67.7158 72.6298 67.6573 71.6293 68.4769Z" fill="#FA851A"/>
<path d="M106.503 68.4768C105.016 69.6769 105.931 72.2529 107.875 72.2529C108.846 72.2529 110.047 71.0527 110.047 70.0575C110.047 69.0915 108.875 67.8621 107.96 67.8621C107.589 67.8621 106.931 68.1255 106.503 68.4768Z" fill="#FA851A"/>
<path d="M80.0614 69.7941C79.261 70.8479 79.3182 71.5505 80.2901 72.575C81.3192 73.5996 82.0338 73.6581 83.0629 72.7507C83.9776 71.931 84.0919 70.4674 83.2915 69.5892C82.5197 68.711 80.8046 68.8281 80.0614 69.7941Z" fill="#FA851A"/>
<path d="M97.6698 69.5306C97.4411 69.8233 97.1267 70.4088 97.041 70.8479C96.8694 71.4919 97.0124 71.8139 97.6984 72.5457C98.756 73.5995 99.4707 73.6581 100.5 72.7506C101.443 71.931 101.557 70.5259 100.757 69.6184C100.1 68.8573 98.3273 68.8281 97.6698 69.5306Z" fill="#FA851A"/>
<path d="M89.0944 69.677C88.2369 70.3796 88.0368 71.6676 88.0368 76.6733C88.0368 79.864 87.9224 81.6204 87.7509 81.6204C87.5794 81.6204 86.7219 81.2984 85.8072 80.9178C84.921 80.5373 82.7772 79.8347 81.0335 79.3956C78.0893 78.6053 77.5176 78.5467 72.3152 78.5467C67.1414 78.5467 66.5411 78.6053 63.797 79.3664C55.7075 81.5618 49.3617 86.8017 45.6743 94.3541C42.6157 100.56 41.5867 109.254 42.9873 117.187C43.6734 120.992 45.5885 126.613 47.2179 129.54C50.5623 135.57 52.4203 138.293 56.3364 142.947C63.7398 151.7 76.2599 161.623 87.265 167.39L90.3235 169L93.3821 167.39C104.387 161.623 116.936 151.7 124.311 142.947C130.514 135.6 134.172 129.247 136.602 121.724C139.403 112.972 138.66 101.848 134.744 93.8857C132.772 89.8753 128.97 85.4844 125.368 83.1426C123.082 81.6497 119.88 80.2153 117.05 79.3956C114.335 78.6053 113.877 78.5467 108.475 78.5467C103.101 78.5467 102.558 78.6053 99.6136 79.3956C97.8985 79.8347 95.726 80.5373 94.8399 80.9178C93.9252 81.2984 93.0677 81.6204 92.8962 81.6204C92.7247 81.6204 92.6103 79.864 92.6103 76.6733C92.6103 71.5798 92.3816 70.1161 91.4669 69.6185C90.7237 69.2087 89.6661 69.2672 89.0944 69.677ZM76.5171 83.084C79.8044 83.5231 84.0063 84.8111 87.4079 86.4504L90.3235 87.8555L92.9247 86.5968C98.0128 84.1964 101.815 83.1718 106.617 82.9084C117.736 82.2644 126.74 87.3579 131.114 96.7252C135.916 107.059 134.63 119.353 127.484 131.238C123.024 138.703 113.477 148.626 105.045 154.656C103.958 155.417 102.529 156.442 101.9 156.91C99.2705 158.872 90.9524 163.877 90.3235 163.877C89.9519 163.877 83.6633 160.247 81.1765 158.579C73.6587 153.544 69.0851 149.768 63.2825 143.855C52.7633 133.053 47.6181 123.188 46.7319 111.918C46.4747 108.932 47.2179 103.107 48.1898 100.092C50.7338 92.305 56.0505 86.7724 63.3968 84.2257C67.3701 82.8498 71.7149 82.4693 76.5171 83.084Z" fill="#FA851A"/>
<path d="M69.0284 89.6999C62.454 90.783 57.2515 94.8812 54.9648 100.794C53.5069 104.541 52.9638 110.63 53.7356 115.021C55.6508 126.35 64.9694 138.586 80.0335 149.592C83.4637 152.08 89.8953 156.266 90.324 156.266C90.7528 156.266 97.1844 152.08 100.615 149.592C115.679 138.586 124.997 126.35 126.912 115.021C127.37 112.386 127.313 107.351 126.798 104.746C125.969 100.414 124.454 97.4865 121.653 94.647C119.652 92.6565 117.451 91.3392 114.335 90.3732C112.534 89.7877 111.562 89.6999 108.189 89.6999C104.731 89.6999 103.816 89.7877 101.472 90.461C97.9847 91.4563 95.4979 92.6272 92.6394 94.647L90.324 96.2277L88.0087 94.647C83.3494 91.3684 78.8044 89.8463 73.3161 89.6706C71.4296 89.6121 69.5144 89.6413 69.0284 89.6999Z" fill="#FA851A"/>
</svg>
