<svg width="146" height="139" viewBox="0 0 146 139" fill="none" xmlns="http://www.w3.org/2000/svg">
<path d="M1.39043 0.566946C0.672041 0.829891 0 1.69044 0 2.33585C0 3.2442 1.22821 4.31989 2.06247 4.10475C3.03577 3.86571 3.47607 3.29201 3.47607 2.31194C3.47607 1.11674 2.3869 0.208384 1.39043 0.566946Z" fill="black"/>
<path d="M143.563 0.686725C142.845 1.09307 142.52 1.61893 142.52 2.43162C142.52 3.74627 143.864 4.51116 145.046 3.86579C146.367 3.17261 146.297 1.3321 144.953 0.734531C144.026 0.352087 144.142 0.352087 143.563 0.686725Z" fill="black"/>
<path d="M142.497 8.264C141.315 9.24403 142.103 11.3953 143.656 11.3953C145.162 11.3953 145.857 9.26794 144.698 8.31181C143.934 7.69032 143.192 7.66642 142.497 8.264Z" fill="black"/>
<path d="M1.15875 8.52677C0.509868 9.19606 0.556217 10.3195 1.27462 11.0366C2.38698 12.2079 4.03235 11.4908 4.03235 9.84145C4.03235 8.26384 2.22476 7.42722 1.15875 8.52677Z" fill="black"/>
<path d="M141.199 14.9797C140.574 15.2427 140.203 15.9361 140.203 16.8447C140.203 17.9924 141.338 18.7098 142.474 18.3033C143.123 18.0642 143.679 17.2512 143.679 16.5339C143.679 16.0796 142.729 15.0514 142.173 14.9079C141.918 14.8362 141.477 14.8601 141.199 14.9797Z" fill="black"/>
<path d="M3.22128 15.2915C1.7845 16.4388 2.38702 18.5662 4.17141 18.5662C5.21423 18.5662 5.8631 17.9208 5.8631 16.8452C5.8631 15.5066 4.19458 14.5265 3.22128 15.2915Z" fill="black"/>
<path d="M6.2569 21.9846C5.37629 22.4387 5.00551 23.4188 5.37629 24.2315C5.97881 25.5462 7.85589 25.5462 8.5511 24.2793C9.01458 23.3949 8.5511 22.2714 7.60098 21.9368C7.20702 21.7934 6.88259 21.6738 6.85942 21.6738C6.83624 21.6738 6.58133 21.8173 6.2569 21.9846Z" fill="black"/>
<path d="M137.932 22.0562C137.561 22.3191 137.422 22.6537 137.422 23.323C137.422 24.6855 138.465 25.4504 139.693 24.9963C140.342 24.7811 140.898 23.9445 140.898 23.2513C140.898 23.084 140.689 22.6537 140.411 22.2952C139.855 21.5781 138.743 21.4586 137.932 22.0562Z" fill="black"/>
<path d="M9.64033 28.4854C8.11086 29.9438 9.91842 32.2869 11.8187 31.2349C12.7688 30.7089 12.6298 28.7962 11.5638 28.2463C10.66 27.7681 10.3587 27.792 9.64033 28.4854Z" fill="black"/>
<path d="M134.062 28.3666C133.83 28.6295 133.644 29.1793 133.644 29.5856C133.644 31.2111 135.591 31.9282 136.657 30.6613C137.306 29.8725 137.329 29.3227 136.703 28.51C136.101 27.7212 134.71 27.6256 134.062 28.3666Z" fill="black"/>
<path d="M130.076 33.6254C128.453 34.2947 129.033 36.9718 130.794 36.9718C132.439 36.9718 133.204 34.9162 131.953 33.8883C131.281 33.3386 130.887 33.2908 130.076 33.6254Z" fill="black"/>
<path d="M14.113 34.0796C12.9079 35.0835 13.7422 37.187 15.3412 37.2109C16.1986 37.2109 17.2415 35.9201 17.0329 35.0835C16.7316 33.7211 15.179 33.1952 14.113 34.0796Z" fill="black"/>
<path d="M124.862 38.7646C123.656 39.4579 123.703 41.2028 124.931 41.8243C125.788 42.2307 126.854 41.9916 127.225 41.2745C128.083 39.6252 126.437 37.8802 124.862 38.7646Z" fill="black"/>
<path d="M19.2345 39.1232C18.5856 39.7924 18.632 41.0593 19.304 41.7047C20.0224 42.4217 20.9726 42.3739 21.7141 41.609C22.1776 41.131 22.2703 40.8681 22.1544 40.2466C21.8763 38.7646 20.2078 38.1192 19.2345 39.1232Z" fill="black"/>
<path d="M24.9121 43.5444C24.2864 44.1661 24.1937 44.8356 24.5876 45.6485C24.9584 46.3658 25.2365 46.5332 26.1171 46.5332C26.9745 46.5332 27.8088 45.6246 27.8088 44.6921C27.8088 43.927 26.8355 42.9466 26.0708 42.9466C25.7463 42.9466 25.2133 43.2097 24.9121 43.5444Z" fill="black"/>
<path d="M118.906 43.4019C118.187 44.1429 118.257 45.4098 119.022 46.0313C120.134 46.9396 121.455 46.4376 121.803 44.9556C122.173 43.4497 119.995 42.2784 118.906 43.4019Z" fill="black"/>
<path d="M30.891 47.3936C30.4275 47.8717 30.3348 48.1346 30.4507 48.7561C30.7287 50.2859 32.3509 50.8596 33.3242 49.8079C34.0426 49.0191 33.9963 47.8956 33.2315 47.2741C32.3973 46.6048 31.6094 46.6526 30.891 47.3936Z" fill="black"/>
<path d="M112.788 47.2024C112.162 47.9195 112.278 49.282 112.996 49.8556C113.784 50.501 114.317 50.4771 115.082 49.8078C115.847 49.1385 115.939 47.9912 115.291 47.2502C114.734 46.6287 113.321 46.6048 112.788 47.2024Z" fill="black"/>
<path d="M37.8432 50.1187C37.2406 50.3816 36.8467 51.0748 36.8467 51.8875C36.8467 53.3934 38.9091 54.0388 39.8361 52.8437C40.624 51.8158 40.3923 50.788 39.2336 50.1665C38.6542 49.8318 38.5384 49.8318 37.8432 50.1187Z" fill="black"/>
<path d="M106.485 50.4763C105.372 51.6001 106.114 53.4652 107.69 53.4652C108.431 53.4652 109.381 52.4609 109.381 51.6719C109.381 50.8828 108.408 49.8785 107.643 49.8785C107.319 49.8785 106.786 50.1415 106.485 50.4763Z" fill="black"/>
<path d="M44.3319 52.7958C43.2196 53.3456 43.15 55.2579 44.2392 55.8316C45.4906 56.5248 46.8115 55.8316 46.8115 54.4452C46.8115 52.9393 45.6296 52.1505 44.3319 52.7958Z" fill="black"/>
<path d="M99.6714 53.1305C98.7908 54.2778 99.2775 55.6403 100.714 55.9988C102.174 56.3813 103.31 54.1344 102.221 53.011C101.502 52.27 100.274 52.3417 99.6714 53.1305Z" fill="black"/>
<path d="M50.8206 55.0427C50.3339 55.5447 50.2644 55.8076 50.3803 56.5247C50.5425 57.5765 51.0292 58.0067 52.072 58.0067C53.8564 58.0067 54.4357 55.6164 52.8136 54.7798C51.9098 54.2778 51.5158 54.3256 50.8206 55.0427Z" fill="black"/>
<path d="M93.0437 55.0188C91.9081 56.1662 92.6034 58.0067 94.2024 58.0067C95.1062 58.0067 95.9404 57.1223 95.9404 56.1662C95.9404 55.4013 94.9671 54.4213 94.2024 54.4213C93.8779 54.4213 93.3449 54.6842 93.0437 55.0188Z" fill="black"/>
<path d="M57.8423 56.3565C56.6141 57.3607 57.3556 59.4409 58.9547 59.4409C60.5305 59.4409 61.2721 57.5998 60.1365 56.4521C59.4413 55.7348 58.6534 55.687 57.8423 56.3565Z" fill="black"/>
<path d="M86.1146 56.3574C84.9095 57.3374 85.6511 59.4409 87.2269 59.4409C88.0148 59.4409 88.9882 58.4609 88.9882 57.6481C88.9882 56.8593 88.038 55.8554 87.2964 55.8554C86.9952 55.8554 86.4622 56.0705 86.1146 56.3574Z" fill="black"/>
<path d="M64.6787 57.4331C64.0299 58.2936 64.0762 58.8673 64.8641 59.7039C65.6984 60.5405 66.2777 60.5883 67.112 59.8473C67.8536 59.178 67.9463 57.9829 67.2974 57.2658C66.6717 56.5487 65.2813 56.6443 64.6787 57.4331Z" fill="black"/>
<path d="M78.9538 57.218C78.7684 57.457 78.5135 57.9351 78.444 58.2936C78.3049 58.8195 78.4208 59.0824 78.977 59.68C79.8344 60.5405 80.4138 60.5883 81.248 59.8473C82.0128 59.178 82.1055 58.0307 81.4566 57.2897C80.9236 56.6682 79.4868 56.6443 78.9538 57.218Z" fill="black"/>
<path d="M72.0016 57.3374C71.3064 57.9111 71.1441 58.9628 71.1441 63.0503C71.1441 65.6558 71.0514 67.09 70.9124 67.09C70.7734 67.09 70.0781 66.827 69.3366 66.5163C68.6182 66.2056 66.8801 65.6319 65.4665 65.2733C63.0796 64.6279 62.6161 64.5801 58.3984 64.5801C54.204 64.5801 53.7173 64.6279 51.4926 65.2494C44.9344 67.0422 39.7897 71.3209 36.8003 77.4879C34.3207 82.5554 33.4864 89.6547 34.6219 96.1325C35.1781 99.24 36.7308 103.829 38.0517 106.22C40.763 111.144 42.2693 113.367 45.4442 117.167C51.4462 124.315 61.5965 132.418 70.5184 137.127L72.9981 138.441L75.4777 137.127C84.3997 132.418 94.573 124.315 100.552 117.167C105.581 111.168 108.547 105.981 110.517 99.8375C112.788 92.6904 112.185 83.6072 109.01 77.1055C107.411 73.8307 104.329 70.2452 101.409 68.333C99.5554 67.1139 96.96 65.9426 94.6657 65.2733C92.4642 64.6279 92.0934 64.5801 87.7135 64.5801C83.3568 64.5801 82.9165 64.6279 80.5296 65.2733C79.1392 65.6319 77.3779 66.2056 76.6595 66.5163C75.918 66.827 75.2228 67.09 75.0837 67.09C74.9447 67.09 74.852 65.6558 74.852 63.0503C74.852 58.8911 74.6666 57.696 73.925 57.2896C73.3225 56.955 72.4651 57.0028 72.0016 57.3374ZM61.805 68.2851C64.47 68.6437 67.8766 69.6954 70.6343 71.034L72.9981 72.1814L75.1069 71.1535C79.2319 69.1935 82.314 68.3569 86.2072 68.1417C95.2219 67.6159 102.522 71.775 106.067 79.4241C109.961 87.862 108.918 97.9014 103.124 107.606C99.5091 113.701 91.769 121.805 84.9327 126.729C84.0521 127.35 82.8934 128.187 82.3835 128.569C80.2515 130.171 73.5079 134.258 72.9981 134.258C72.6968 134.258 67.5985 131.294 65.5824 129.932C59.4876 125.82 55.7798 122.737 51.0755 117.908C42.5474 109.088 38.3761 101.033 37.6577 91.8299C37.4492 89.3918 38.0517 84.635 38.8396 82.173C40.9021 75.8147 45.2124 71.297 51.1682 69.2174C54.3893 68.0939 57.9118 67.7832 61.805 68.2851Z" fill="black"/>
<path d="M55.7334 73.6873C50.4033 74.5717 46.1857 77.9181 44.3318 82.7466C43.1499 85.8062 42.7096 90.7781 43.3353 94.3636C44.8879 103.614 52.4427 113.606 64.6554 122.593C67.4362 124.625 72.6504 128.043 72.998 128.043C73.3456 128.043 78.5598 124.625 81.3407 122.593C93.5534 113.606 101.108 103.614 102.661 94.3636C103.032 92.2123 102.985 88.101 102.568 85.9736C101.896 82.4359 100.668 80.0455 98.3967 77.7269C96.7746 76.1015 94.9902 75.0258 92.4642 74.237C91.0042 73.759 90.2163 73.6873 87.4818 73.6873C84.6777 73.6873 83.9361 73.759 82.0359 74.3087C79.2086 75.1215 77.1925 76.0776 74.8751 77.7269L72.998 79.0177L71.1209 77.7269C67.3436 75.0497 63.6589 73.8068 59.2095 73.6634C57.68 73.6155 56.1273 73.6395 55.7334 73.6873Z" fill="black"/>
</svg>
