<svg width="105" height="176" viewBox="0 0 105 176" fill="none" xmlns="http://www.w3.org/2000/svg">
<path d="M44.4503 1.56879C31.3686 4.60684 22.3048 15.6684 23.5196 26.9638C24.3605 35.3768 30.5276 43.1667 39.0307 46.8279L43.329 48.6196L43.0487 54.3062C42.8618 58.4348 43.1421 60.5381 44.0766 61.6287C45.2913 62.9529 45.2913 63.4203 44.0766 65.3678C43.2356 66.77 42.8618 69.4185 42.9553 72.6903L43.1421 77.7537L36.2275 79.7012C17.3525 84.8425 3.89698 98.3969 0.719993 115.145C-0.775061 123.169 0.159348 138.203 2.58881 144.591C6.88709 155.808 17.1656 166.013 29.3129 170.998C58.6533 183.073 92.9461 170.531 102.944 144.201C104.72 139.527 105 137.035 105 126.285C105 115.145 104.72 113.198 102.757 108.056C97.4313 94.5019 85.5643 84.453 69.6794 79.857L62.2041 77.6758L62.391 72.6124C62.4844 69.4185 62.1106 66.77 61.2697 65.3678C60.0549 63.4203 60.0549 62.9529 61.2697 61.6287C62.2041 60.5381 62.4844 58.4348 62.2975 54.3062L62.0172 48.6196L66.3155 46.8279C71.4547 44.5689 76.9677 39.6612 79.5841 34.8315C82.6676 29.2228 82.4808 20.1866 79.0234 14.3442C76.0333 9.35866 70.6138 4.84053 64.727 2.73727C59.4009 0.711899 50.1502 0.166611 44.4503 1.56879ZM62.1106 7.80069C71.2678 11.3061 76.3137 18.8623 75.2858 27.2754C74.0711 37.1685 64.8204 44.1015 52.6731 44.1015C45.5716 44.1015 40.7127 42.2319 35.6669 37.7138C30.0604 32.5725 28.3785 26.029 30.9014 19.096C33.4243 12.0072 43.4225 5.93111 52.6731 5.93111C55.6632 5.93111 59.1205 6.6322 62.1106 7.80069ZM54.9157 50.645C55.5698 51.2682 55.9435 53.5272 55.7567 55.9421C55.4763 59.9928 55.3829 60.0707 52.6731 60.0707C49.9633 60.0707 49.8699 59.9928 49.5896 55.9421C49.3092 51.7355 50.3371 49.5544 52.6731 49.5544C53.3272 49.5544 54.355 50.0218 54.9157 50.645ZM54.8223 66.8479C56.5976 68.328 56.2239 75.8062 54.355 76.741C51.1781 78.1432 49.4027 76.4294 49.4027 71.9113C49.4027 67.9385 50.524 65.9131 52.6731 65.9131C53.2338 65.9131 54.1682 66.3026 54.8223 66.8479ZM59.6812 83.0508C71.9219 84.6867 84.1627 91.2302 90.797 99.5653C102.944 114.989 100.982 133.763 85.8446 147.239C67.7171 163.364 37.6291 163.364 19.5016 147.239C4.36419 133.763 2.40193 114.989 14.5492 99.5653C22.3048 89.828 36.8816 83.0508 51.7387 82.3497C52.7666 82.3497 56.3173 82.6613 59.6812 83.0508ZM29.126 159.781C36.1341 162.663 46.2257 164.844 52.6731 164.844C64.5401 164.844 79.5841 159.703 88.6479 152.536C91.7314 150.044 94.2543 148.252 94.2543 148.564C94.2543 149.81 88.0872 156.509 83.6955 159.937C66.222 173.725 39.1242 173.725 21.6507 159.937C17.259 156.509 11.0919 149.81 11.0919 148.564C11.0919 148.252 13.6148 150.044 16.6984 152.536C19.9688 155.107 25.2015 158.145 29.126 159.781Z" fill="#FA851A"/>
<path d="M44.7305 10.2935C37.5355 12.8641 33.5176 18.1612 33.5176 25.0942C33.5176 30.4693 35.4798 33.9747 40.2453 37.4801C48.2812 43.1667 59.7745 42.6215 66.5957 36.3117C70.894 32.3388 71.8284 30.3135 71.8284 24.9384C71.8284 15.5906 63.699 8.9692 52.4861 9.0471C50.0566 9.125 46.5059 9.67029 44.7305 10.2935ZM56.1303 14.5C60.4286 15.5127 64.8203 19.6413 65.6613 23.3805C66.6891 27.7428 63.3252 32.962 58.3729 34.8316C56.2237 35.6106 53.7008 36.3117 52.673 36.3117C51.6451 36.3117 49.1222 35.6106 46.9731 34.8316C42.0207 32.962 38.6568 27.7428 39.6847 23.3805C40.7125 18.7065 46.0387 14.6558 52.2058 13.7989C52.4861 13.721 54.2615 14.1105 56.1303 14.5Z" fill="#FA851A"/>
<path d="M29.0324 101.201C24.4538 105.252 27.9111 112.652 34.4519 112.652C37.9092 112.652 42.8616 108.991 42.8616 106.42C42.8616 104.161 40.4321 100.5 38.6567 99.8769C35.2929 98.8642 30.9946 99.4095 29.0324 101.201ZM36.3207 106.109C36.3207 107.199 34.3585 107.589 33.2372 106.654C32.3962 105.953 34.4519 104.006 35.4798 104.551C35.947 104.785 36.3207 105.486 36.3207 106.109Z" fill="#FA851A"/>
<path d="M56.4109 115.145C53.888 117.872 51.7389 120.208 51.4585 120.442C51.2717 120.676 49.9635 119.663 48.5619 118.183C46.8799 116.469 45.3849 115.69 44.1702 115.924C41.8341 116.236 26.9771 132.594 26.9771 134.853C26.9771 135.866 27.6311 136.879 28.4721 137.113C29.3131 137.346 41.8341 137.58 56.4109 137.58C79.2105 137.58 83.135 137.424 84.3497 136.334C86.312 134.776 86.0317 134.308 73.9778 120.987C67.7173 114.132 63.6993 110.315 62.578 110.315C61.6436 110.315 59.0273 112.341 56.4109 115.145ZM69.1189 131.971C65.4747 132.127 59.5879 132.127 55.9437 131.971L49.4963 131.738L56.0371 124.493L62.6714 117.248L69.1189 124.493L75.6597 131.738L69.1189 131.971ZM46.5996 125.506C46.5996 125.973 45.198 127.765 43.5161 129.323C41.4604 131.426 39.8719 132.205 38.4703 132.049C36.6015 131.738 36.6949 131.504 40.3391 127.297C43.2358 124.103 44.5439 123.169 45.4783 123.714C46.039 124.181 46.5996 124.96 46.5996 125.506Z" fill="#FA851A"/>
</svg>
