<svg width="174" height="167" viewBox="0 0 174 167" fill="none" xmlns="http://www.w3.org/2000/svg">
<path d="M128 1.18431C124.3 3.32942 121 9.22849 121 13.8405C121 19.525 124.6 24.7806 129.8 26.7112C135.5 28.8563 141.4 26.7112 144.8 21.3484C148.2 15.9856 147.5 8.4777 143.2 3.97296C139.7 0.111747 132.3 -1.17532 128 1.18431ZM140.3 6.11807C143.3 9.01398 144.2 12.5534 143 16.6291C141.6 21.1339 138.6 23.4935 134.2 23.4935C129.5 23.4935 127.1 21.7774 125.4 17.3799C124 14.055 124.1 13.3042 125.7 9.76477C128.7 3.11491 135.5 1.39882 140.3 6.11807Z" fill="#FA851A"/>
<path d="M151.5 24.4587C145.1 26.1748 140.6 30.465 138.5 37.1149C136.7 42.6922 134 43.0139 131.7 37.9729C127.1 27.4619 113 27.4619 108.3 37.9729L106.7 41.6196L76.5001 41.9414L46.3001 42.2632L42.7001 45.2663C36.1001 50.6291 35.5001 52.7742 35.2001 74.4398L34.8001 93.7458L30.4001 93.3168C24.3001 92.8878 21.6001 93.7458 17.4001 97.7143C9.20013 105.544 8.80013 117.771 16.6001 125.601C22.1001 131.071 30.7001 132.358 36.9001 128.818C40.3001 126.888 40.4001 126.888 44.2001 129.462C46.3001 131.071 48.0001 133.109 48.0001 134.181C48.0001 141.582 54.4001 147.91 61.9001 147.91C65.6001 147.91 66.8001 147.266 70.1001 143.727C73.0001 140.724 74.0001 138.686 74.0001 136.219V132.894H105.3C137.5 132.894 142 132.358 147.3 128.389C153.1 123.885 153.5 122.061 154 91.0645L154.5 62.6417L158.1 62.1054C169.9 59.9603 176.7 45.4808 171.1 34.219C167.6 27.0329 158.7 22.6354 151.5 24.4587ZM161.4 29.2852C172.3 34.1117 172.3 51.1654 161.4 56.7427C145.1 65.2159 132.8 40.0108 148.3 29.9288C152.1 27.4619 156.8 27.2474 161.4 29.2852ZM123.6 34.7553C128.5 36.9004 130.6 42.3704 128.6 47.5187C126 54.1685 117.7 56.4209 113.7 51.5944C108.9 45.9099 110.1 37.6512 116.2 34.7553C120.3 32.8247 119.5 32.8247 123.6 34.7553ZM108.2 49.2348C112.6 60.4966 127.4 60.4966 131.8 49.2348C134 43.7647 137.4 43.2285 138.4 48.2695C139.3 53.096 142.6 57.6007 147.1 59.9603L151 62.1054V89.2411C151 115.197 150.9 116.377 148.7 120.452C144.4 128.497 143.8 128.604 106.7 128.604H73.9001L70.6001 124.957C68.8001 122.919 66.2001 120.882 64.7001 120.56C60.4001 119.38 54.9001 120.989 51.8001 124.421C48.4001 128.068 48.2001 128.068 45.2001 125.815C43.2001 124.314 43.1001 123.992 44.4001 121.311C48.0001 113.695 47.1001 105.544 42.0001 99.2159L39.0001 95.5692V75.8342C39.0001 57.0644 39.1001 55.7774 41.3001 52.4524C45.9001 45.2663 47.2001 44.9446 78.5001 44.9446H106.5L108.2 49.2348ZM36.6001 99.1086C44.8001 104.9 45.1001 118.093 37.1001 124.206C31.0001 128.926 23.8001 128.068 18.5001 122.169C16.2001 119.594 15.5001 117.771 15.2001 112.73C14.8001 107.153 15.1001 106.187 17.6001 102.97C22.7001 96.4272 30.6001 94.8184 36.6001 99.1086ZM67.7001 126.888C69.9001 128.926 70.5001 130.32 70.5001 133.752C70.5001 141.689 63.4001 146.623 57.1001 143.191C53.4001 141.046 52.0001 138.471 52.0001 133.43C52.0001 125.064 61.5001 121.096 67.7001 126.888Z" fill="#FA851A"/>
<path d="M54.3 55.1338C49.8 58.0297 45.6 65.645 46.2 69.7207C46.7 73.2602 48.8 73.4747 49.5 69.9352C50.6 64.5724 53.3 59.8531 56.4 58.0297C58.9 56.5282 63.3 56.0991 77.8 55.6701C102.3 54.9193 102 53.096 77.3 52.6669C58.8 52.4524 58.4 52.4524 54.3 55.1338Z" fill="#FA851A"/>
<path d="M140 104.579C140 108.654 136.5 114.124 132.6 116.162C129.9 117.557 125.7 117.878 111.7 117.878C99.8999 117.878 93.8999 118.307 93.3999 119.058C91.9999 121.632 96.0999 122.276 113 121.954C127.7 121.632 131.1 121.311 134.3 119.594C138.8 117.235 142.6 111.55 143.5 105.758C144.2 102.219 144 101.79 142.1 101.79C140.5 101.79 140 102.434 140 104.579Z" fill="#FA851A"/>
<path d="M7.30001 65.8594C3.2 67.79 0 73.26 0 78.5155C0 93.1022 18.3 97.607 24.5 84.6291C27.6 78.0865 25.1 69.7206 18.9 66.1812C14.9 63.9288 11.7 63.8216 7.30001 65.8594ZM19.2 71.4367C24.9 77.2285 21.7 87.2032 13.8 88.5975C10.5 89.1338 9.70001 88.812 6.50001 85.3799C2.7 81.3042 2.2 78.6228 4.5 73.9036C7.50001 67.79 14.5 66.6102 19.2 71.4367Z" fill="#FA851A"/>
<path d="M27.4 140.295C22.7 143.405 21 146.623 21 152.2C21.1 157.992 22.6 161.209 26.6 164.105C36.7 171.292 50.4 159.601 45.7 147.802C42.4 139.436 33.8 135.897 27.4 140.295ZM40.4 145.872C47.2 154.56 38.7 166.68 29.5 161.424C23.4 157.885 22.3 150.698 26.9 145.657C31.1 141.153 36.8 141.26 40.4 145.872Z" fill="#FA851A"/>
</svg>
