<svg width="89" height="139" viewBox="0 0 89 139" fill="none" xmlns="http://www.w3.org/2000/svg">
<path d="M37.6769 0.898056C26.5886 3.30412 18.906 12.0646 19.9356 21.0102C20.6485 27.6732 25.8758 33.8425 33.0832 36.7421L36.7265 38.1611L36.4889 42.6647C36.3305 45.9345 36.5681 47.6002 37.3601 48.464C38.3898 49.5127 38.3898 49.8829 37.3601 51.4253C36.6473 52.5357 36.3305 54.6333 36.4097 57.2245L36.5681 61.2346L30.7071 62.7769C14.7083 66.8487 3.30316 77.5834 0.61028 90.8476C-0.656956 97.202 0.135066 109.109 2.19433 114.168C5.83763 123.052 14.5499 131.134 24.8462 135.082C49.7157 144.645 78.7829 134.712 87.2575 113.859C88.7624 110.158 89 108.184 89 99.6698C89 90.8476 88.7624 89.3052 87.0991 85.2334C82.5846 74.4987 72.5259 66.5402 59.0615 62.9003L52.7254 61.1729L52.8838 57.1628C52.963 54.6333 52.6462 52.5357 51.9333 51.4253C50.9037 49.8829 50.9037 49.5127 51.9333 48.464C52.7254 47.6002 52.963 45.9345 52.8046 42.6647L52.567 38.1611L56.2103 36.7421C60.5664 34.953 65.2393 31.0663 67.457 27.2413C70.0707 22.7993 69.9123 15.6429 66.9818 11.0158C64.4473 7.06744 59.8536 3.4892 54.8638 1.82347C50.3493 0.219437 42.5083 -0.212418 37.6769 0.898056ZM52.6462 5.83356C60.408 8.60979 64.6849 14.5941 63.8137 21.257C62.784 29.0921 54.943 34.5829 44.6467 34.5829C38.6274 34.5829 34.5088 33.1022 30.2319 29.524C25.4798 25.4522 24.0541 20.2699 26.1926 14.7792C28.3311 9.16502 36.8057 4.35292 44.6467 4.35292C47.1812 4.35292 50.1117 4.90816 52.6462 5.83356ZM46.5476 39.7651C47.102 40.2587 47.4188 42.0478 47.2604 43.9603C47.0228 47.1684 46.9436 47.2301 44.6467 47.2301C42.3499 47.2301 42.2707 47.1684 42.0331 43.9603C41.7955 40.6288 42.6667 38.9014 44.6467 38.9014C45.2011 38.9014 46.0724 39.2716 46.5476 39.7651ZM46.4684 52.5974C47.9732 53.7696 47.6564 59.6922 46.0724 60.4325C43.3795 61.543 41.8747 60.1858 41.8747 56.6075C41.8747 53.4611 42.8251 51.8571 44.6467 51.8571C45.1219 51.8571 45.914 52.1656 46.4684 52.5974ZM50.5869 65.4297C60.9624 66.7253 71.3379 71.9076 76.9613 78.5088C87.2575 90.7242 85.5943 105.592 72.7635 116.265C57.3983 129.036 31.8952 129.036 16.5299 116.265C3.69917 105.592 2.03592 90.7242 12.3322 78.5088C18.906 70.7971 31.2616 65.4297 43.8547 64.8745C44.7259 64.8745 47.7356 65.1213 50.5869 65.4297ZM24.6878 126.198C30.6279 128.481 39.1818 130.208 44.6467 130.208C54.7054 130.208 67.457 126.136 75.1396 120.461C77.7533 118.486 79.8917 117.067 79.8917 117.314C79.8917 118.301 74.6644 123.607 70.9419 126.321C56.1311 137.241 33.1624 137.241 18.3516 126.321C14.6291 123.607 9.40173 118.301 9.40173 117.314C9.40173 117.067 11.5402 118.486 14.1539 120.461C16.9259 122.496 21.3613 124.903 24.6878 126.198Z" fill="black"/>
<path d="M37.9145 7.80771C31.8159 9.84361 28.4102 14.0388 28.4102 19.5295C28.4102 23.7864 30.0735 26.5627 34.1128 29.3389C40.9242 33.8425 50.6661 33.4107 56.4479 28.4135C60.0912 25.2671 60.8832 23.663 60.8832 19.4062C60.8832 12.0029 53.9926 6.75891 44.4883 6.82061C42.429 6.8823 39.4194 7.31416 37.9145 7.80771ZM47.5772 11.1392C51.2205 11.9412 54.943 15.211 55.6558 18.1723C56.5271 21.6271 53.6758 25.7606 49.4781 27.2413C47.6564 27.8582 45.5179 28.4135 44.6467 28.4135C43.7755 28.4135 41.637 27.8582 39.8154 27.2413C35.6177 25.7606 32.7664 21.6271 33.6376 18.1723C34.5088 14.4706 39.0234 11.2626 44.2507 10.5839C44.4883 10.5222 45.9932 10.8307 47.5772 11.1392Z" fill="black"/>
<path d="M24.6085 79.8042C20.7276 83.0124 23.6581 88.8734 29.2023 88.8734C32.1328 88.8734 36.3305 85.9737 36.3305 83.9378C36.3305 82.1486 34.2712 79.249 32.7664 78.7554C29.9151 77.9534 26.2718 78.3853 24.6085 79.8042ZM30.7863 83.691C30.7863 84.5547 29.1231 84.8632 28.1726 84.1229C27.4598 83.5676 29.2023 82.0252 30.0735 82.4571C30.4695 82.6422 30.7863 83.1974 30.7863 83.691Z" fill="black"/>
<path d="M47.8148 90.8475C45.6763 93.0068 43.8547 94.8576 43.6171 95.0427C43.4587 95.2278 42.3498 94.4258 41.1618 93.2536C39.7362 91.8963 38.4689 91.2794 37.4393 91.4645C35.4592 91.7113 22.8661 104.667 22.8661 106.456C22.8661 107.258 23.4205 108.06 24.1333 108.245C24.8461 108.43 35.4592 108.615 47.8148 108.615C67.1402 108.615 70.4666 108.492 71.4963 107.628C73.1595 106.394 72.9219 106.024 62.7048 95.4746C57.3983 90.0455 53.9926 87.0225 53.0421 87.0225C52.2501 87.0225 50.0325 88.6266 47.8148 90.8475ZM58.5863 104.173C55.4974 104.297 50.5077 104.297 47.4188 104.173L41.9538 103.988L47.498 98.2508L53.1214 92.5133L58.5863 98.2508L64.1305 103.988L58.5863 104.173ZM39.4986 99.0528C39.4986 99.423 38.3105 100.842 36.8849 102.076C35.1424 103.742 33.796 104.358 32.608 104.235C31.0239 103.988 31.1031 103.803 34.192 100.472C36.6473 97.9423 37.7561 97.202 38.5481 97.6339C39.0233 98.004 39.4986 98.621 39.4986 99.0528Z" fill="black"/>
</svg>
