<svg width="237" height="65" viewBox="0 0 237 65" fill="none" xmlns="http://www.w3.org/2000/svg">
<path fill-rule="evenodd" clip-rule="evenodd" d="M222.378 23.2266C223.957 23.0223 226.017 21.7385 227.218 20.5814C226.888 20.5164 226.535 20.4907 226.214 20.4907C224.787 20.4907 222.325 21.0074 221.933 22.6196C221.848 22.9664 222.028 23.1964 222.378 23.2266ZM156.679 19.6397C158.009 20.0035 159.385 20.1821 160.758 20.1524C163.37 19.9087 166.069 19.1005 168.244 17.6108C169.936 16.4513 171.432 14.7659 171.764 12.6867C171.808 12.4087 171.831 12.1277 171.831 11.8461C171.831 10.6471 171.412 9.52389 170.774 8.52692C168.292 4.93034 163.969 3.61036 159.753 3.61036C159.408 3.61036 159.061 3.61009 158.715 3.64432L158.055 3.7015C157.328 8.93858 156.933 14.3599 156.679 19.6397ZM179.904 21.3462C180.367 21.0816 181.575 20.3163 181.433 19.9456C181.428 19.9327 181.42 19.9216 181.41 19.9118C181.355 19.8569 181.291 19.8173 181.213 19.8036C180.661 19.7065 179.971 20.6947 179.739 21.3478C179.798 21.337 179.856 21.3346 179.904 21.3462ZM200.534 14.2537C200.533 14.4776 200.514 14.6915 200.414 14.8898C200.278 15.2286 200.125 15.7327 199.945 16.0313C199.941 16.037 199.939 16.0419 199.934 16.0473C199.718 16.3343 199.141 16.2176 198.864 16.0721C198.557 15.9613 197.968 15.5202 198.338 15.1838C198.457 14.9777 198.59 14.5274 198.687 14.2803L198.753 13.7893C198.765 13.3382 199.423 13.3673 199.734 13.4845C200.049 13.5613 200.651 13.8547 200.534 14.2537ZM228.105 22.1922C226.799 23.3105 224.709 24.7197 223.015 24.7197C222.523 24.7197 222.067 24.6048 221.637 24.3327C221.182 23.993 220.818 23.5594 220.635 23.0298C219.456 23.8747 218.012 24.51 216.549 24.51C215.429 24.51 214.268 24.036 213.615 23.0988C213.241 22.5398 213.127 21.9093 213.127 21.2475C213.127 20.9214 213.152 20.5983 213.197 20.2766C211.305 20.5587 208.467 21.8331 207.667 23.5293L207.634 24.2864C207.674 25.0265 206.077 24.6646 206.029 23.8892C205.981 23.5109 205.966 23.1717 206.029 22.7987L206.088 22.2092C204.724 23.5409 202.508 25.0278 200.705 25.1041C199.72 25.1458 198.743 24.8815 198.065 24.1365C197.409 23.4401 197.241 22.0261 197.241 21.1077C197.241 20.2498 197.382 19.0168 197.852 18.2708C197.969 17.9016 198.601 17.991 198.881 18.0606C198.888 18.0621 198.893 18.0639 198.899 18.066C199.203 18.176 199.658 18.4952 199.582 18.8726C199.574 18.9105 199.557 18.9409 199.535 18.9632C199.227 19.3643 198.697 23.0622 199.056 23.3719C199.318 23.5674 199.635 23.6467 199.959 23.6467C201.806 23.6467 204.862 21.526 206.278 20.3183L206.379 19.3205C206.379 18.8205 207.025 18.8865 207.339 19.012C207.351 19.0163 207.36 19.0207 207.369 19.0269C207.635 19.1915 208.066 19.5609 208.019 19.9038L207.973 20.6978C209.463 19.7057 211.752 18.7819 213.475 18.9648C214.143 19.0354 214.944 19.6712 214.944 20.3737C214.944 21.044 214.58 22.2283 214.966 22.8319C215.282 23.074 215.624 23.1575 216.021 23.1575C217.629 23.1575 219.832 21.5286 221.129 20.6141C221.339 20.3665 221.587 20.1542 221.856 19.9742C222.871 19.2948 224.122 18.9986 225.335 18.9986C226.293 18.9986 227.261 19.1917 228.146 19.5607L228.657 18.8736C229.008 18.2842 230.473 19.2294 230.147 19.8546C229.949 20.4407 229.666 20.9889 229.6 21.6103C229.571 22.0949 229.688 22.7337 230.225 22.8821C232.001 23.2286 234.976 21.3794 236.132 20.1017C236.297 19.9384 236.559 19.7817 236.791 19.9082C237.125 20.0903 236.986 20.5929 236.871 20.8632C236.61 21.4778 236.059 22.1018 235.59 22.5679C234.568 23.5844 232.08 24.6053 230.634 24.2601C229.431 23.9731 228.584 23.2964 228.105 22.1922ZM154.853 21.203C153.705 20.3943 152.614 19.4847 151.639 18.4764C151.62 18.4565 151.608 18.4362 151.598 18.4106C151.393 17.8488 152.064 17.2818 152.56 17.6765C152.566 17.6811 152.571 17.6852 152.575 17.6904L152.983 18.0953C153.577 18.4736 154.239 18.7984 154.9 19.0575C155.099 14.0371 155.415 8.8665 156.089 3.88754C151.186 4.5944 146.443 6.65018 143.823 11.0575C143.207 12.3142 142.825 13.6566 142.825 15.0616C142.825 19.1426 146.048 22.0668 150.11 21.8999C150.602 21.8674 151.213 21.8076 151.68 21.6293C152.221 21.4498 152.651 21.9459 152.118 22.3164C151.588 22.6328 149.916 22.7626 149.314 22.7626C146.586 22.7626 144.066 21.7378 142.549 19.3914C141.669 18.0299 141.289 16.3884 141.289 14.7819C141.289 13.1777 141.658 11.5457 142.4 10.1177C144.889 5.32426 151.171 2.81942 156.324 2.34102C156.442 1.68673 156.542 1.02512 156.687 0.376965C156.693 0.350979 156.703 0.329346 156.719 0.307648C157.117 -0.237164 158.675 0.178127 158.53 0.949146C158.431 1.3796 158.344 1.81342 158.281 2.25087C163.202 2.12543 169.695 3.77826 172.253 8.32986C172.932 9.53806 173.367 10.8726 173.367 12.2655C173.367 12.8673 173.285 13.4642 173.124 14.0441C172.493 16.3142 170.738 18.0642 168.755 19.2497C166.34 20.6924 163.438 21.4196 160.631 21.5742C159.575 21.5742 158.508 21.4902 157.466 21.2913C160.865 23.4002 165.358 25.4642 169.242 25.4642C172.441 25.4642 175.428 24.0112 178.071 22.3368C178.036 22.1505 178.016 21.9611 178.016 21.7718C178.016 20.0865 179.188 18.4771 180.981 18.4045C182.126 18.4045 183.331 19.5354 182.877 20.7238C182.414 21.8571 180.985 22.6856 179.754 22.7871C179.988 23.3072 180.744 23.8294 181.189 24.0157C181.467 24.1318 181.768 24.206 182.071 24.206C184.893 24.206 187.094 22.4171 188.955 20.5069C188.937 20.4376 188.924 20.3672 188.914 20.2964C188.593 18.1739 192.867 17.0754 194.417 16.8683C195.047 16.7843 196.02 17.5582 195.573 18.1139C195.55 18.1425 195.523 18.1615 195.488 18.1737C194.608 18.4813 191.05 19.2415 190.714 20.0275C190.563 20.3796 191.7 20.9106 191.933 21.0497C192.924 21.5943 194.175 22.1868 195.057 22.8886C195.998 23.6973 195.152 24.8328 194.175 25.0976C193.396 25.3089 192.47 25.3836 191.665 25.3836C190.955 25.3836 190.01 25.3199 189.332 25.0495C188.691 24.7308 188.493 23.5666 189.493 23.7912C189.852 23.8719 190.243 23.8915 190.611 23.8915C191.518 23.8915 192.565 23.7931 193.498 23.6186C192.679 23.2021 191.851 22.7943 191.044 22.3533C190.583 22.0884 190.042 21.846 189.621 21.502C188.552 23.6161 186.244 25.2875 183.838 25.4183C181.994 25.5186 179.54 25.2295 178.503 23.5053C176.175 25.4498 172.946 27.0962 169.875 27.0962C165.459 27.0962 160.323 24.7614 156.587 22.3849C156.498 24.358 156.461 26.3324 156.461 28.3073C156.461 30.0416 156.479 31.7962 156.598 33.5271L156.68 33.6631C156.699 33.6935 156.708 33.7239 156.708 33.7595C156.708 34.0452 156.551 34.2116 156.269 34.2582C156.253 34.261 156.238 34.2616 156.221 34.2603C155.708 34.2137 155.484 33.4898 155.211 33.1404C155.192 33.1154 155.18 33.0902 155.175 33.059C154.991 32.0564 154.923 30.9806 154.873 29.9635C154.802 28.5288 154.785 27.0875 154.785 25.6513C154.785 24.1687 154.819 22.6853 154.853 21.203Z" fill="black"/>
<path fill-rule="evenodd" clip-rule="evenodd" d="M30.5516 23.2266C32.1303 23.0222 34.1904 21.7385 35.3914 20.5814C35.0616 20.5164 34.7082 20.4907 34.3872 20.4907C32.9603 20.4907 30.4979 21.0074 30.1065 22.6196C30.0223 22.9664 30.2015 23.1964 30.5516 23.2266ZM67.261 14.2537C67.2597 14.4776 67.2405 14.6915 67.1403 14.8898C67.0044 15.2286 66.8518 15.7327 66.6721 16.0313C66.6688 16.037 66.6655 16.0419 66.6615 16.0473C66.4453 16.3343 65.868 16.2176 65.5911 16.0721C65.2841 15.9613 64.6953 15.5202 65.0649 15.1838C65.1841 14.9777 65.317 14.5274 65.4137 14.2803L65.4794 13.7893C65.4926 13.3382 66.1501 13.3673 66.4612 13.4845C66.7762 13.5613 67.3777 13.8547 67.261 14.2537ZM64.5792 18.2708C64.6957 17.9016 65.3279 17.991 65.6074 18.0606C65.6141 18.0621 65.6199 18.0639 65.6261 18.066C65.9302 18.176 66.3849 18.4952 66.3087 18.8725C66.3007 18.9105 66.2848 18.9409 66.2616 18.9632C65.9538 19.3643 65.4237 23.0622 65.7828 23.3718C66.0447 23.5674 66.3617 23.6467 66.6867 23.6467C68.5888 23.6467 72.0792 21.2493 73.4547 19.9141C73.4925 19.5547 73.5409 19.1966 73.6006 18.8401C73.7472 17.9619 75.2467 18.8337 75.1346 19.5143C75.1605 20.2464 75.0769 20.9744 75.0616 21.7118C76.14 20.5363 77.298 19.2608 78.7292 18.5634C79.1749 18.346 79.8686 18.8662 80.1239 19.2155C80.1325 19.2276 80.1392 19.2389 80.1451 19.2526C80.496 20.0782 80.6193 20.9848 80.8223 21.8592L84.0096 19.2781C84.4248 18.9828 85.2067 19.5287 85.4375 19.8889C85.4408 19.8948 85.4435 19.9 85.4468 19.9059C85.8202 20.6483 85.9701 21.8297 86.6207 22.3901C86.9861 22.6194 87.3701 22.7732 87.8091 22.7732C88.788 22.7732 92.6107 21.1347 93.0942 20.3142C93.335 19.9066 94.1175 20.3693 93.5618 21.3728C93.0564 22.2852 91.6033 23.2268 90.6695 23.6359C90.0196 23.9206 89.2967 24.1257 88.5824 24.1257C87.7189 24.1257 86.8534 23.8572 86.1233 23.3951C85.6139 23.0575 85.2458 22.6459 84.8784 22.1585C84.6974 21.9008 84.5415 21.6111 84.4208 21.3143C83.3796 22.1667 82.3204 23.0372 81.2003 23.7797C81.1936 23.7843 81.1877 23.7877 81.1804 23.7915C80.7394 24.0105 79.984 23.5068 79.7658 23.1075C79.3771 22.2584 79.1483 21.3145 78.9361 20.4018C77.3311 21.5294 76.4723 23.1817 75.0345 24.4291C74.5788 24.8243 73.5442 23.9234 73.4275 23.4597C73.4249 23.4483 73.4229 23.4386 73.4229 23.4267C73.3884 22.9115 73.3519 22.3932 73.3519 21.8766C73.3519 21.8004 73.3526 21.7244 73.3532 21.6484C72.0116 23.2235 69.3302 25.0237 67.4328 25.1041C66.4466 25.1458 65.4701 24.8815 64.7922 24.1365C64.1357 23.4401 63.9681 22.0261 63.9681 21.1077C63.9681 20.2498 64.1087 19.0168 64.5792 18.2708ZM36.2787 22.1922C34.9725 23.3105 32.8826 24.7197 31.1888 24.7197C30.6969 24.7197 30.2399 24.6048 29.8109 24.3327C29.1272 23.8229 28.6813 23.1245 28.6813 22.2613C28.6813 21.2859 29.2376 20.5043 30.0298 19.9742C31.0445 19.2948 32.2953 18.9986 33.5087 18.9986C34.4668 18.9986 35.4349 19.1917 36.3196 19.5607L36.8302 18.8736C37.1818 18.2842 38.6468 19.2294 38.3209 19.8546C38.1227 20.4407 37.839 20.9889 37.7732 21.6103C37.7445 22.0949 37.8616 22.7337 38.3984 22.8821C40.0595 23.2059 42.674 21.626 43.8835 20.5234L44.0053 19.3205C44.0053 18.8205 44.6506 18.8865 44.9656 19.012C44.9765 19.0163 44.9856 19.0207 44.9955 19.0269C45.2602 19.1915 45.6918 19.5609 45.6454 19.9038L45.5985 20.6978C47.0892 19.7057 49.3781 18.7819 51.1013 18.9648C51.7687 19.0354 52.57 19.6712 52.57 20.3737C52.57 21.044 52.2065 22.2283 52.5922 22.8319C52.9078 23.074 53.2495 23.1575 53.6472 23.1575C55.3731 23.1575 57.7163 21.3235 59.1442 20.3428C59.1562 19.6178 59.1712 18.8927 59.1881 18.1677C59.2318 16.2913 59.2979 14.4143 59.3888 12.5396C56.6319 12.7704 53.8783 12.9971 51.1485 13.4634C50.2428 13.618 49.3944 12.3572 50.2747 12.1516C53.3011 11.6003 56.3782 11.3275 59.4427 11.0789C59.5727 8.58364 59.729 6.09014 59.8906 3.59665C59.8567 2.77774 61.5683 3.00903 61.7059 3.91973C61.7087 3.93826 61.7087 3.95475 61.7061 3.97355C61.3854 6.25376 61.2406 8.65058 61.1207 10.9563C61.3885 10.946 61.6592 10.9173 61.9287 10.8906C65.4007 10.6471 68.8985 10.3661 72.3803 10.3661C74.0091 10.3661 75.9258 10.4032 77.5168 10.7548C77.5301 10.7577 77.5407 10.7612 77.5526 10.7664C77.8657 10.905 78.2517 11.2507 78.4407 11.5328C78.4579 11.5583 78.4672 11.5833 78.4712 11.6134C78.5222 12.0217 78.2351 12.2554 77.8259 12.2042C76.0253 11.8459 74.0377 11.7883 72.2046 11.7883C68.6876 11.7883 65.181 12.0717 61.6818 12.3463C61.4629 12.3736 61.2504 12.4017 61.0326 12.4128L60.7942 18.1049C60.7487 21.0059 60.6536 23.902 60.6536 26.8043C60.6536 28.4773 60.6784 30.1603 60.7808 31.8302C60.8491 32.948 60.944 34.3072 61.2443 35.3871C61.2469 35.3961 61.2484 35.4038 61.2497 35.4128C61.2738 35.5976 61.2538 35.8119 61.0785 35.9203C60.5756 36.2308 59.7971 35.2727 59.6541 34.8301C59.3733 33.9612 59.3204 32.2532 59.274 31.3265C59.1785 29.4166 59.144 27.4966 59.1272 25.5845C59.1207 24.8727 59.1178 24.1609 59.1178 23.4494C59.1178 23.0784 59.1192 22.7075 59.1215 22.3368C57.8031 23.5416 55.9562 24.51 54.1744 24.51C53.0549 24.51 51.8941 24.036 51.2415 23.0988C50.8669 22.5398 50.7532 21.9093 50.7532 21.2475C50.7532 20.9214 50.7786 20.5983 50.8231 20.2766C48.9309 20.5587 46.0928 21.8331 45.2931 23.5293L45.26 24.2864C45.2998 25.0265 43.7032 24.6646 43.6545 23.8892C43.6071 23.5109 43.5921 23.1717 43.6548 22.7987L43.6688 22.6585C42.5949 23.6439 40.2105 24.5953 38.8072 24.2601C37.6046 23.9731 36.7577 23.2964 36.2787 22.1922ZM26.2917 20.2869C26.2954 20.1581 26.3409 20.0254 26.4726 19.9739C26.7845 19.8515 27.0252 20.3317 27.1065 20.5528C27.2829 21.0337 27.2863 21.5878 27.1914 22.0861C26.5998 25.1891 24.7814 27.9667 22.3363 29.9506C19.6193 32.1548 16.2395 33.3172 12.7375 33.3172C12.2289 33.3172 11.7206 33.2806 11.2087 33.2466C4.06501 32.584 -0.107229 25.481 0.00209637 18.8329C0.140178 10.4513 6.29116 1.38403 15.4085 1.38403C20.2211 1.38403 23.0122 4.02255 23.0122 8.77068C23.0122 12.435 21.127 17.4258 18.2327 19.7503C17.9092 20.0102 16.5162 20.8016 16.1327 20.6107C15.7548 20.4229 15.9535 20.011 16.2038 19.8093C18.0397 18.329 19.5664 15.3538 20.3328 13.1718C20.8747 11.6297 21.2656 9.92091 21.2656 8.28119C21.2656 4.79047 19.4947 2.78724 15.8939 2.66642C7.35123 2.3802 2.08731 11.0818 1.88939 18.736C1.74223 24.4332 4.88754 31.1362 11.1515 32.0025C11.567 32.0713 11.9999 32.1048 12.4209 32.1048C18.5817 32.1048 25.2855 26.3066 26.2917 20.2869Z" fill="black"/>
<path d="M39.4166 45.5011C39.5329 44.602 40.2576 43.5363 40.9915 42.8255C40.9645 43.0965 40.949 43.3696 40.9337 43.6386C40.899 44.2355 40.8669 44.7991 40.7127 45.1755C40.5218 45.6425 40.0646 46.0697 39.7539 46.0697C39.7283 46.0697 39.7039 46.0658 39.6788 46.0604C39.377 45.9935 39.4021 45.6142 39.4166 45.5011ZM50.244 42.5346C50.8113 42.9883 51.368 43.4948 51.9237 44.0198L52.4546 44.5204L52.6121 43.8106C52.8945 42.5385 53.3012 42.0874 54.167 42.0874H54.1672C55.5196 42.0874 56.6193 43.1818 56.6193 44.5273C56.6193 45.2464 56.3532 45.8389 55.8294 46.2886C55.1396 46.8801 54.0514 47.1496 52.9875 46.9927C50.4277 46.613 50.1842 44.0971 50.1981 43.0332C50.1999 42.8652 50.2165 42.6998 50.244 42.5346ZM64.5835 38.141L64.892 38.4144L65.1661 38.7222C66.0864 37.9112 67.0195 38.1431 67.4937 38.3556C68.4786 38.7946 69.1683 39.8189 69.1703 40.848C69.1723 41.793 68.7949 42.6915 68.1078 43.3755C67.4612 44.0204 66.6037 44.39 65.7555 44.39H65.7552C64.5107 44.39 63.1675 43.7328 62.2491 42.6746C60.8853 41.1029 61.1304 38.8515 61.7545 37.4019C62.5426 35.5711 64.4628 34.3875 66.6461 34.3875C67.497 34.3875 68.3128 34.5434 69.0662 34.826C67.379 35.6097 65.8478 36.7295 64.5835 38.141ZM116.654 56.9725C115.879 57.6068 115.188 58.4384 114.512 59.2543C112.931 61.1581 111.44 62.957 109.025 62.4227C108.351 62.2741 107.852 61.9543 107.584 61.4986C107.325 61.0573 107.287 60.4903 107.478 59.8599C108.007 58.1143 110.286 57.4386 111.788 57.1789C111.997 57.2132 112.207 57.241 112.419 57.2582C113.986 57.3889 115.392 57.2729 116.654 56.9725ZM105.259 58.5615C104.457 60.0609 104.564 61.2235 104.865 62.0082C104.507 61.646 104.221 61.2 104.011 60.6719C103.793 60.1242 103.894 59.3622 104.288 58.5811C104.786 57.5955 105.661 56.7664 106.417 56.5642C106.507 56.54 106.598 56.5253 106.688 56.5104C106.779 56.5753 106.871 56.6351 106.962 56.6969C106.004 57.2562 105.474 57.994 105.259 58.5615ZM112.952 40.2274C115.378 40.2274 117.452 42.1086 118.364 45.1345C118.476 45.5076 118.837 46.6084 119.46 47.6371C118.786 47.5237 118.155 47.2264 117.669 46.7838C116.981 46.1565 116.511 45.2489 116.015 44.2882C115.449 43.1941 114.864 42.0632 113.876 41.1325C113.5 40.7777 113.1 40.4773 112.68 40.2344C112.771 40.23 112.862 40.2274 112.952 40.2274ZM141.263 57.2582C141.475 57.241 141.685 57.2132 141.895 57.1789C143.396 57.4386 145.675 58.1143 146.204 59.8599C146.395 60.4903 146.358 61.0573 146.098 61.4986C145.83 61.9543 145.332 62.2741 144.657 62.4227C142.242 62.957 140.751 61.1581 139.17 59.2543C138.494 58.4384 137.802 57.6068 137.028 56.9725C138.29 57.2729 139.696 57.3889 141.263 57.2582ZM147.265 56.5642C148.021 56.7664 148.896 57.5955 149.394 58.5811C149.789 59.3622 149.89 60.1242 149.672 60.6719C149.461 61.2 149.175 61.646 148.817 62.0082C149.118 61.2235 149.225 60.0609 148.423 58.5615C148.21 57.994 147.678 57.2562 146.72 56.6969C146.811 56.6351 146.904 56.5753 146.994 56.5104C147.084 56.5253 147.175 56.54 147.265 56.5642ZM139.806 41.1325C138.819 42.0632 138.233 43.1941 137.668 44.2882C137.171 45.2489 136.701 46.1565 136.014 46.7838C135.528 47.2264 134.896 47.5237 134.222 47.6371C134.845 46.6084 135.206 45.5076 135.318 45.1345C136.231 42.1086 138.305 40.2274 140.73 40.2274C140.82 40.2274 140.911 40.23 141.002 40.2344C140.582 40.4773 140.182 40.7777 139.806 41.1325ZM187.037 34.3875C189.22 34.3875 191.14 35.5711 191.928 37.4019C192.552 38.8515 192.797 41.1029 191.433 42.6746C190.514 43.7328 189.171 44.39 187.928 44.39H187.927C187.078 44.39 186.221 44.0204 185.574 43.3755C184.887 42.6915 184.51 41.793 184.512 40.848C184.514 39.8189 185.203 38.7946 186.188 38.3556C186.663 38.1431 187.596 37.9112 188.516 38.7222L188.791 38.4144L189.099 38.141C187.834 36.7295 186.303 35.6097 184.616 34.826C185.37 34.5434 186.185 34.3875 187.037 34.3875ZM203.484 43.0332C203.499 44.0971 203.255 46.613 200.695 46.9927C199.632 47.1496 198.543 46.8801 197.853 46.2886C197.329 45.8389 197.063 45.2464 197.063 44.5273C197.063 43.1818 198.163 42.0874 199.515 42.0874C199.516 42.0874 199.516 42.0874 199.516 42.0874C200.381 42.0874 200.787 42.5385 201.071 43.8106L201.228 44.5204L201.758 44.0198C202.315 43.4948 202.871 42.9883 203.438 42.5346C203.467 42.6998 203.482 42.8652 203.484 43.0332ZM214.265 45.5011C214.28 45.6142 214.306 45.9935 214.003 46.0604C213.979 46.0658 213.953 46.0697 213.928 46.0697C213.618 46.0697 213.16 45.6425 212.97 45.1755C212.815 44.7991 212.783 44.2355 212.749 43.6386C212.733 43.3696 212.717 43.0965 212.69 42.8255C213.425 43.5363 214.149 44.602 214.265 45.5011ZM174.272 46.3682C175.249 47.6352 175.725 49.1668 176.15 50.8031C175.734 50.6236 175.34 50.4492 175.181 50.3644C173.717 49.2317 173.055 47.6249 172.291 45.769C172.016 45.1008 171.737 44.4235 171.413 43.7535C172.504 44.4305 173.447 45.2973 174.272 46.3682ZM187.125 56.0634C187.32 55.3174 187.505 54.612 187.796 54.1753C188.126 53.6804 188.726 53.2773 189.136 53.2773C189.209 53.2773 189.272 53.2904 189.331 53.3173C189.696 53.4782 189.568 53.9518 189.52 54.0916C189.143 55.2001 187.954 56.3646 186.843 57.0769C186.946 56.7414 187.036 56.4011 187.125 56.0634ZM157.925 51.8738L157.945 51.7939C157.971 51.6826 158 51.5706 158.029 51.4577C158.08 51.2586 158.133 51.0554 158.176 50.849C158.259 51.0201 158.337 51.1916 158.407 51.3663C158.676 52.0438 158.767 52.6297 158.679 53.1106C158.668 53.1662 158.606 53.4489 158.395 53.4489C158.385 53.4489 158.375 53.4473 158.366 53.4468C158.107 53.4239 157.865 52.9581 157.836 52.5884C157.819 52.3699 157.875 52.0922 157.925 51.8738ZM132.884 60.4955C133.259 60.5988 133.613 60.6964 133.83 60.845C134.098 61.0269 134.346 61.4126 134.251 61.6161C134.232 61.6555 134.195 61.7367 134.036 61.7367C133.981 61.7367 133.919 61.7251 133.859 61.7032C133.303 61.5074 132.726 60.9058 132.374 60.3468C132.544 60.4012 132.715 60.4481 132.884 60.4955ZM119.824 61.7032C119.763 61.7251 119.702 61.7367 119.646 61.7367C119.488 61.7367 119.45 61.6555 119.431 61.6161C119.337 61.4126 119.584 61.0269 119.852 60.845C120.069 60.6964 120.423 60.5988 120.798 60.4955C120.967 60.4481 121.138 60.4012 121.308 60.3468C120.956 60.9058 120.379 61.5074 119.824 61.7032ZM95.8457 52.5884C95.8172 52.9581 95.5752 53.4239 95.3172 53.4468C95.3066 53.4473 95.2973 53.4489 95.2867 53.4489C95.0771 53.4489 95.0141 53.1662 95.0035 53.1106C94.9153 52.6297 95.0061 52.0438 95.2761 51.3663C95.3457 51.1916 95.4233 51.0201 95.5055 50.849C95.55 51.0554 95.6024 51.2586 95.6534 51.4577C95.6819 51.5706 95.7111 51.6826 95.7383 51.7939L95.7575 51.8738C95.8073 52.0922 95.863 52.3699 95.8457 52.5884ZM64.1623 54.0916C64.1141 53.9518 63.9861 53.4782 64.3506 53.3173C64.4102 53.2904 64.4742 53.2773 64.5459 53.2773C64.955 53.2773 65.556 53.6804 65.8861 54.1753C66.1759 54.612 66.3623 55.3174 66.5579 56.0634C66.6461 56.4011 66.7363 56.7414 66.8391 57.0769C65.7286 56.3646 64.5397 55.2001 64.1623 54.0916ZM81.3912 45.769C80.6272 47.6249 79.9653 49.2317 78.5009 50.3644C78.3418 50.4492 77.9478 50.6236 77.532 50.8031C77.9578 49.1668 78.4333 47.6352 79.4108 46.3682C80.2352 45.2973 81.1776 44.4305 82.2693 43.7535C81.945 44.4235 81.6664 45.1008 81.3912 45.769ZM39.4988 46.8626C39.5848 46.8817 39.6698 46.891 39.7539 46.891C40.5223 46.891 41.2091 46.1441 41.4788 45.4849C41.8498 44.5781 41.6731 43.2181 41.9422 42.1385C42.8707 41.4875 44.1181 40.9604 45.1638 40.7878C46.781 40.5203 48.1901 41.0714 49.5176 41.9913C49.4269 42.3273 49.3764 42.673 49.3715 43.021C49.3365 45.6879 50.6422 47.4757 52.8657 47.8058C54.1592 47.9977 55.5019 47.6538 56.3688 46.9111C57.0735 46.3077 57.4457 45.4831 57.4457 44.5273C57.4457 42.7287 55.975 41.2664 54.1672 41.2654H54.167C52.7844 41.2654 52.2419 42.1719 51.9846 42.9474C51.5391 42.5346 51.0443 42.0962 50.502 41.683C51.015 40.5152 52.1168 39.554 53.3484 39.3392C55.5527 38.9525 57.1483 40.5152 58.0989 41.8932C58.4108 42.3464 58.6698 42.8446 58.9447 43.3711C59.277 44.0105 59.6208 44.6708 60.0674 45.2435C61.9061 47.5994 64.2415 48.8952 66.6461 48.8952C70.8966 48.8952 74.3539 45.4576 74.3539 41.2304C74.3539 38.6295 73.0421 36.3282 71.0438 34.9409C72.2893 34.5545 73.5972 34.3474 74.9269 34.3474C79.5819 34.3474 83.6706 36.7898 85.9719 40.4523C85.6304 40.5732 85.2875 40.7033 84.944 40.8494C82.3289 41.5519 79.9852 42.9198 78.0984 45.3682C76.187 47.847 75.9608 50.9232 74.9965 53.8C75.0894 53.5235 78.9997 52.0531 79.452 51.7099C82.7839 49.1902 82.7295 44.9032 85.3644 42.007C85.6669 41.6745 86.0038 41.404 86.3646 41.1798C86.3745 41.1771 86.3838 41.1732 86.3944 41.1701C87.3839 42.995 87.9456 45.0791 87.9456 47.2934C87.9456 54.4319 82.1054 60.2399 74.9269 60.2399C73.2344 60.2399 71.5757 59.9011 70.0371 59.2787C70.1193 59.2901 70.2016 59.3037 70.2831 59.3135C70.1843 59.3022 70.0901 59.2847 69.9993 59.2641C69.7042 59.143 69.413 59.0149 69.1272 58.8745C68.9309 58.7321 68.7611 58.5626 68.6139 58.3709C67.6244 57.0856 67.6064 54.8369 66.7741 53.5893C66.3192 52.9061 65.4252 52.2169 64.5459 52.2169C64.3333 52.2169 64.1218 52.2568 63.9169 52.3478C63.0747 52.7203 62.8765 53.6243 63.1521 54.4319C63.5749 55.6752 64.7273 56.8963 65.913 57.7331C68.4023 59.8504 71.6042 61.0617 74.9269 61.0617C82.5611 61.0617 88.7727 54.8853 88.7727 47.2934C88.7727 44.9941 88.1996 42.8268 87.1936 40.9194C91.3804 39.7377 94.4742 40.9045 96.1303 41.8713C97.9992 42.9629 99.7726 44.6074 101.074 46.3927C100.817 46.1666 100.553 45.9582 100.287 45.7711C98.679 44.6417 97.0402 44.2115 97.0395 44.2115C95.1879 43.7246 93.4343 43.9588 91.8101 44.9115C90.9692 45.4043 88.8197 46.7928 90.304 47.8117C93.0596 49.7034 95.3696 46.4531 97.8188 46.1421C99.1923 45.9677 100.481 46.2227 101.474 46.9708C101.871 47.5724 102.213 48.1821 102.483 48.7888C103.811 51.7749 105.463 53.8943 107.64 55.397C107.486 55.38 107.332 55.3697 107.179 55.3697C106.878 55.3697 106.578 55.4039 106.274 55.4727C105.332 54.6471 104.442 53.5839 103.543 52.2051C103.403 51.9905 103.262 51.7689 103.118 51.5427C102.294 50.2408 101.358 48.7631 100.016 47.9191C99.4854 47.5857 98.8017 47.3588 98.1252 47.3588C96.7431 47.3588 96.1714 48.2702 95.597 49.36C95.2873 49.9486 94.9524 50.5228 94.7057 51.1414C94.449 51.7862 94.272 52.5263 94.4 53.2201C94.4842 53.6769 94.8052 54.0584 95.2867 54.0584C95.3145 54.0584 95.343 54.0566 95.3716 54.0538C96.0295 53.9958 96.4121 53.2191 96.4572 52.6359C96.4791 52.3581 96.428 52.0498 96.3531 51.7314L96.3737 51.7182C96.3591 51.6968 96.3471 51.6729 96.3345 51.6512C96.2357 51.2429 96.1077 50.8176 96.0487 50.4067C96.062 49.6384 96.3451 48.8236 96.8432 48.37C97.1974 48.0471 97.657 47.9119 98.1331 47.9119C98.6876 47.9119 99.2639 48.0956 99.7209 48.3831C100.958 49.1608 101.82 50.52 102.652 51.8349C102.797 52.0624 102.939 52.2868 103.08 52.5034C103.933 53.8092 104.78 54.8464 105.674 55.6729C103.877 56.4887 102.222 59.1605 102.986 61.0759C103.919 63.415 105.925 64.2721 108.164 64.2721C108.805 64.2721 109.466 64.2018 110.127 64.0756C110.127 64.0756 103.927 63.2535 106.269 59.007C106.269 59.007 106.916 56.9728 110.393 56.9728C110.555 56.9728 110.724 56.98 110.898 56.9893C110.96 57.0055 111.022 57.0192 111.084 57.0356C109.321 57.446 107.661 58.3062 107.214 59.7821C107.001 60.4862 107.047 61.1277 107.346 61.6367C107.654 62.1602 108.215 62.525 108.966 62.6911C111.544 63.2602 113.161 61.3124 114.724 59.4279C115.557 58.4247 116.412 57.3961 117.405 56.7672C117.919 56.608 118.406 56.4169 118.869 56.2007C120.242 56.0199 121.627 56.8046 122.123 58.1303C122.245 58.4593 122.288 58.7826 122.254 59.0994C122.174 59.2401 122.069 59.3555 121.944 59.4531C121.305 59.956 120.172 59.9828 119.55 60.4061C119.126 60.6946 118.704 61.3203 118.947 61.8394C119.084 62.1362 119.356 62.2681 119.646 62.2681C119.764 62.2681 119.885 62.2457 120.003 62.2042C120.63 61.9824 121.24 61.3912 121.652 60.7884C122.501 59.9362 122.747 59.0129 122.381 58.0342C121.915 56.7883 120.728 55.9807 119.451 55.9068C124.099 53.3916 126.107 48.143 126.841 45.5486C127.576 48.143 129.584 53.3916 134.232 55.9068C132.954 55.9807 131.768 56.7883 131.301 58.0342C130.936 59.0129 131.181 59.9362 132.03 60.7884C132.443 61.3912 133.052 61.9824 133.68 62.2042C133.797 62.2457 133.918 62.2681 134.037 62.2681C134.326 62.2681 134.598 62.1362 134.735 61.8394C134.977 61.3203 134.556 60.6946 134.132 60.4061C133.51 59.9828 132.378 59.956 131.738 59.4531C131.613 59.3555 131.508 59.2401 131.429 59.0994C131.394 58.7826 131.437 58.4593 131.56 58.1303C132.055 56.8046 133.44 56.0199 134.813 56.2007C135.276 56.4169 135.763 56.608 136.277 56.7672C137.27 57.3961 138.126 58.4247 138.957 59.4279C140.521 61.3124 142.138 63.2602 144.717 62.6911C145.468 62.525 146.028 62.1602 146.336 61.6367C146.635 61.1277 146.682 60.4862 146.468 59.7821C146.02 58.3062 144.361 57.446 142.598 57.0356C142.661 57.0192 142.722 57.0055 142.785 56.9893C142.958 56.98 143.128 56.9728 143.29 56.9728C146.767 56.9728 147.413 59.007 147.413 59.007C149.755 63.2535 143.555 64.0756 143.555 64.0756C144.216 64.2018 144.877 64.2721 145.519 64.2721C147.758 64.2721 149.764 63.415 150.696 61.0759C151.46 59.1605 149.806 56.4887 148.009 55.6729C148.902 54.8464 149.749 53.8092 150.602 52.5034C150.743 52.2868 150.885 52.0624 151.03 51.8349C151.862 50.52 152.724 49.1608 153.961 48.3831C154.418 48.0956 154.995 47.9119 155.549 47.9119C156.026 47.9119 156.485 48.0471 156.839 48.37C157.338 48.8236 157.621 49.6384 157.633 50.4067C157.574 50.8176 157.446 51.2429 157.348 51.6512C157.334 51.6729 157.323 51.6968 157.309 51.7182L157.328 51.7314C157.255 52.0498 157.203 52.3581 157.225 52.6359C157.27 53.2191 157.653 53.9958 158.31 54.0538C158.34 54.0566 158.368 54.0584 158.395 54.0584C158.877 54.0584 159.198 53.6769 159.282 53.2201C159.41 52.5263 159.234 51.7862 158.976 51.1414C158.73 50.5228 158.395 49.9486 158.085 49.36C157.511 48.2702 156.939 47.3588 155.557 47.3588C154.88 47.3588 154.197 47.5857 153.666 47.9191C152.324 48.7631 151.389 50.2408 150.564 51.5427C150.42 51.7689 150.28 51.9905 150.14 52.2051C149.24 53.5839 148.35 54.6471 147.408 55.4727C147.104 55.4039 146.804 55.3697 146.504 55.3697C146.35 55.3697 146.196 55.38 146.043 55.397C148.219 53.8943 149.871 51.7749 151.199 48.7888C151.469 48.1821 151.812 47.5724 152.208 46.9708C153.202 46.2227 154.49 45.9677 155.863 46.1421C158.313 46.4531 160.622 49.7034 163.379 47.8117C164.862 46.7928 162.713 45.4043 161.873 44.9115C160.248 43.9588 158.494 43.7246 156.643 44.2115C156.642 44.2115 155.003 44.6417 153.395 45.7711C153.129 45.9582 152.866 46.1666 152.608 46.3927C153.909 44.6074 155.683 42.9629 157.552 41.8713C159.208 40.9045 162.302 39.7377 166.488 40.9194C165.482 42.8268 164.91 44.9941 164.91 47.2934C164.91 54.8853 171.12 61.0617 178.755 61.0617C182.078 61.0617 185.28 59.8504 187.769 57.7331C188.955 56.8963 190.107 55.6752 190.53 54.4319C190.806 53.6243 190.608 52.7203 189.765 52.3478C189.56 52.2568 189.349 52.2169 189.136 52.2169C188.258 52.2169 187.362 52.9061 186.907 53.5893C186.076 54.8369 186.058 57.0856 185.068 58.3709C184.922 58.5626 184.751 58.7321 184.555 58.8745C184.27 59.0149 183.978 59.143 183.683 59.2641C183.593 59.2847 183.498 59.3022 183.399 59.3135C183.48 59.3037 183.563 59.2901 183.645 59.2787C182.106 59.9011 180.448 60.2399 178.755 60.2399C171.576 60.2399 165.735 54.4319 165.735 47.2934C165.735 45.0791 166.299 42.995 167.288 41.1701C167.298 41.1732 167.308 41.1771 167.317 41.1798C167.678 41.404 168.015 41.6745 168.318 42.007C170.952 44.9032 170.899 49.1902 174.23 51.7099C174.683 52.0531 178.594 53.5235 178.686 53.8C177.721 50.9232 177.495 47.847 175.584 45.3682C173.698 42.9198 171.354 41.5519 168.738 40.8494C168.395 40.7033 168.052 40.5732 167.709 40.4523C170.012 36.7898 174.101 34.3474 178.755 34.3474C180.086 34.3474 181.393 34.5545 182.638 34.9409C180.64 36.3282 179.328 38.6295 179.328 41.2304C179.328 45.4576 182.786 48.8952 187.037 48.8952C189.441 48.8952 191.777 47.5994 193.615 45.2435C194.062 44.6708 194.405 44.0105 194.738 43.3711C195.012 42.8446 195.272 42.3464 195.584 41.8932C196.534 40.5152 198.129 38.9525 200.334 39.3392C201.565 39.554 202.668 40.5152 203.18 41.683C202.638 42.0962 202.143 42.5346 201.697 42.9474C201.44 42.1719 200.898 41.2654 199.516 41.2654H199.515C197.707 41.2664 196.237 42.7287 196.237 44.5273C196.237 45.4831 196.609 46.3077 197.314 46.9111C198.18 47.6538 199.523 47.9977 200.817 47.8058C203.04 47.4757 204.346 45.6879 204.31 43.021C204.306 42.673 204.255 42.3273 204.165 41.9913C205.493 41.0714 206.901 40.5203 208.518 40.7878C209.564 40.9604 210.812 41.4875 211.74 42.1385C212.01 43.2181 211.833 44.5781 212.204 45.4849C212.473 46.1441 213.16 46.891 213.928 46.891C214.012 46.891 214.098 46.8817 214.184 46.8626C214.881 46.7076 215.17 46.0517 215.085 45.395C214.918 44.1025 213.836 42.6524 212.833 41.8535C212.52 41.6052 212.172 41.3898 211.809 41.1994C210.841 40.6033 209.683 40.1478 208.654 39.9773C206.828 39.6746 205.221 40.304 203.867 41.1956C203.223 39.8521 201.94 38.7851 200.478 38.5292C197.842 38.0696 195.989 39.8516 194.902 41.4287C194.561 41.9231 194.277 42.4677 194.004 42.9937C193.674 43.6278 193.362 44.2262 192.962 44.7399C191.99 45.9842 189.927 48.0742 187.037 48.0742C183.242 48.0742 180.155 45.0045 180.155 41.2304C180.155 38.6915 181.554 36.4729 183.624 35.2915C184.865 35.79 186.027 36.4763 187.066 37.3321C186.663 37.3362 186.253 37.4264 185.851 37.6057C184.579 38.1719 183.688 39.5046 183.685 40.8457C183.683 42.0115 184.146 43.1159 184.989 43.9559C185.79 44.755 186.861 45.2126 187.927 45.2126H187.928C189.406 45.2126 190.988 44.4457 192.059 43.2117C193.671 41.353 193.405 38.7461 192.688 37.0778C191.769 34.9437 189.551 33.5647 187.037 33.5647C185.79 33.5647 184.611 33.8633 183.567 34.3888C182.042 33.8257 180.415 33.5245 178.755 33.5245C173.733 33.5245 169.327 36.1983 166.9 40.1885C165.569 39.7944 164.256 39.5919 162.981 39.5919C160.906 39.5919 158.927 40.1141 157.133 41.1624C155.565 42.0779 154.059 43.3668 152.818 44.8079C152.885 44.6907 152.924 44.6222 152.924 44.6222C152.924 44.6222 151.495 33.8759 158.021 37.0871C156.672 36.4245 155.25 35.8608 153.714 36.1818C151.073 36.7349 150.096 39.5203 149.808 41.887C149.579 43.7754 150.56 46.8544 150.231 48.9179C150.03 49.3399 149.823 49.7418 149.609 50.1269C150.182 48.1206 150.071 46.0153 149.246 44.093C147.26 39.4649 139.97 36.7713 136.277 40.8056C135.322 41.8489 134.409 43.3837 133.999 44.7409C133.787 45.4434 132.697 48.3455 131.386 48.3455C131.177 48.3455 130.962 48.2716 130.743 48.102C131.576 48.7481 132.593 49.0581 133.613 49.0581C134.824 49.0581 136.037 48.6212 136.945 47.7934C138.656 46.232 139.094 43.6916 140.754 42.1263C141.69 41.244 142.728 40.8457 143.792 40.8457C144.065 40.8457 144.341 40.8725 144.615 40.9248C145.264 41.2948 145.926 41.7002 146.526 42.1536C144.646 41.9097 142.577 43.5402 141.949 45.0622C141.381 46.4378 141.157 49.0972 139.769 49.9641C142.12 48.4951 143.836 48.9254 144.609 45.8917C145.119 43.8908 146.147 42.9726 148.125 43.7612C148.267 43.9709 148.388 44.1891 148.485 44.4163C149.546 46.8871 149.312 49.6961 147.843 52.1232C147.111 53.3319 146.146 54.3322 145.041 55.0678C144.995 55.0963 144.951 55.1252 144.904 55.1535L144.906 55.1566C143.776 55.8805 142.506 56.3293 141.194 56.4393C136.367 56.8417 132.569 54.8735 129.899 50.5886C127.881 47.349 127.299 43.9317 127.294 43.8982L126.841 43.9714L126.388 43.8982C126.383 43.9317 125.801 47.349 123.783 50.5886C121.113 54.8735 117.315 56.8417 112.488 56.4393C111.176 56.3293 109.906 55.8805 108.776 55.1566L108.778 55.1535C108.732 55.1252 108.687 55.0963 108.642 55.0678C107.537 54.3322 106.571 53.3319 105.84 52.1232C104.37 49.6961 104.136 46.8871 105.197 44.4163C105.294 44.1891 105.415 43.9709 105.557 43.7612C107.535 42.9726 108.564 43.8908 109.073 45.8917C109.847 48.9254 111.563 48.4951 113.914 49.9641C112.525 49.0972 112.301 46.4378 111.734 45.0622C111.105 43.5402 109.036 41.9097 107.156 42.1536C107.757 41.7002 108.418 41.2948 109.067 40.9248C109.343 40.8725 109.617 40.8457 109.891 40.8457C110.954 40.8457 111.992 41.244 112.928 42.1263C114.589 43.6916 115.026 46.232 116.737 47.7934C117.645 48.6212 118.859 49.0581 120.069 49.0581C121.089 49.0581 122.107 48.7481 122.939 48.102C122.72 48.2716 122.505 48.3455 122.296 48.3455C120.985 48.3455 119.895 45.4434 119.683 44.7409C119.274 43.3837 118.36 41.8489 117.405 40.8056C113.714 36.7713 106.423 39.4649 104.436 44.093C103.611 46.0153 103.5 48.1206 104.073 50.1269C103.859 49.7418 103.652 49.3399 103.452 48.9179C103.122 46.8544 104.103 43.7754 103.874 41.887C103.587 39.5203 102.61 36.7349 99.9676 36.1818C98.4322 35.8608 97.0097 36.4245 95.6614 37.0871C102.187 33.8759 100.758 44.6222 100.758 44.6222C100.758 44.6222 100.797 44.6907 100.864 44.8079C99.622 43.3668 98.1172 42.0779 96.5494 41.1624C94.7548 40.1141 92.7771 39.5919 90.7013 39.5919C89.4259 39.5919 88.1128 39.7944 86.7824 40.1885C84.3544 36.1983 79.9494 33.5245 74.9269 33.5245C73.2676 33.5245 71.6401 33.8257 70.1153 34.3888C69.0715 33.8633 67.8936 33.5647 66.6461 33.5647C64.1312 33.5647 61.913 34.9437 60.9949 37.0778C60.277 38.7461 60.0107 41.353 61.6231 43.2117C62.6939 44.4457 64.2773 45.2126 65.7552 45.2126H65.7555C66.8219 45.2126 67.8923 44.755 68.6934 43.9559C69.537 43.1159 70 42.0115 69.9973 40.8457C69.9946 39.5046 69.104 38.1719 67.8313 37.6057C67.4294 37.4264 67.0195 37.3362 66.6169 37.3321C67.6555 36.4763 68.8181 35.79 70.0576 35.2915C72.1288 36.4729 73.5275 38.6915 73.5275 41.2304C73.5275 45.0045 70.441 48.0742 66.6461 48.0742C63.755 48.0742 61.6923 45.9842 60.72 44.7399C60.3201 44.2262 60.0082 43.6278 59.6789 42.9937C59.4048 42.4677 59.1211 41.9231 58.7802 41.4287C57.6924 39.8516 55.8403 38.0696 53.2051 38.5292C51.7427 38.7851 50.4598 39.8521 49.8149 41.1956C48.4609 40.304 46.8539 39.6746 45.0275 39.9773C43.9998 40.1478 42.8407 40.6033 41.8721 41.1994C41.5107 41.3898 41.1625 41.6052 40.8493 41.8535C39.8464 42.6524 38.7641 44.1025 38.5967 45.395C38.5117 46.0517 38.8011 46.7076 39.4988 46.8626Z" fill="black"/>
<path fill-rule="evenodd" clip-rule="evenodd" d="M25.2126 29.3576C25.2289 29.3571 25.1973 29.2795 25.2136 29.279C47.1377 28.7334 196.129 28.7148 228.473 29.3573V29.4403C193.9 30.1441 57.5809 30.2005 25.2126 29.3576Z" fill="black"/>
<path fill-rule="evenodd" clip-rule="evenodd" d="M110.431 20.1965C109.588 22.1742 108.188 24.5633 105.98 24.7197C105.097 24.7197 104.438 24.5095 103.719 23.9804C102.988 23.4054 102.453 22.6199 102.453 21.6669C102.453 20.9642 102.746 20.2495 103.249 19.749C104.175 18.8744 105.355 18.5444 106.612 18.5444C107.446 18.5444 108.207 18.6564 109.014 18.8648C109.021 18.8664 109.026 18.8682 109.033 18.8708L109.138 18.9099C109.797 17.16 110.262 15.3896 110.678 13.5677L110.747 12.3201C110.83 11.3301 110.935 10.3403 111.047 9.35341C111.178 8.19665 111.319 7.04074 111.47 5.88635C111.495 5.6978 111.625 4.53695 111.7 4.26056C111.86 3.46144 113.313 4.20364 113.406 4.90153C113.407 4.91155 113.407 4.92006 113.407 4.93034C113.38 6.1584 113.26 7.42998 113.153 8.655C113.049 9.86551 112.936 11.0765 112.809 12.2851C112.73 13.0355 112.467 13.8127 112.423 14.5521C112.304 16.0293 112.23 17.5015 112.177 18.9823C112.119 20.5983 112.072 22.2165 112.072 23.8338C112.072 24.9065 112.065 25.997 112.178 27.0784C112.207 28.0522 112.28 29.0941 112.487 30.0413C112.566 30.317 112.738 31.0485 112.878 31.3034L112.882 31.3069C112.893 31.3103 112.905 31.3147 112.917 31.3206C113.165 31.4443 113.484 31.7197 113.572 31.9827C113.756 32.4721 113.382 32.6602 112.924 32.5767C112.511 32.465 112.092 32.1733 111.813 31.8554C111.284 31.2544 110.997 30.4089 110.856 29.6386C110.642 28.6146 110.532 27.5421 110.501 26.5014C110.425 25.4398 110.396 24.3737 110.396 23.3095C110.396 22.3658 110.431 21.4222 110.431 20.4786V20.1965ZM121.788 22.1922C120.482 23.3105 118.393 24.7197 116.699 24.7197C116.207 24.7197 115.75 24.6048 115.321 24.3327C114.637 23.8229 114.191 23.1245 114.191 22.2613C114.191 21.2859 114.748 20.5043 115.54 19.9742C116.554 19.2948 117.805 18.9986 119.019 18.9986C119.976 18.9986 120.945 19.1917 121.829 19.5607L122.34 18.8736C122.692 18.2842 124.157 19.2294 123.831 19.8546C123.633 20.4407 123.349 20.9889 123.283 21.6103C123.255 22.0949 123.371 22.7337 123.908 22.8821C125.685 23.2286 128.659 21.3794 129.816 20.1017C129.98 19.9384 130.242 19.7817 130.474 19.9082C130.809 20.0903 130.67 20.5929 130.555 20.8632C130.293 21.4778 129.742 22.1018 129.273 22.5679C128.251 23.5844 125.763 24.6053 124.317 24.2601C123.115 23.9731 122.268 23.2964 121.788 22.1922ZM105.232 23.4023C106.821 23.2343 107.897 21.4292 108.573 20.1073C108.191 20.0638 107.803 20.0365 107.421 20.0365C106.457 20.0365 105.368 20.1833 104.676 20.9206C104.331 21.2875 104.094 21.7515 104.094 22.2613C104.094 22.5477 104.188 22.9452 104.45 23.1328C104.682 23.3306 104.93 23.4007 105.232 23.4023ZM116.062 23.2266C117.64 23.0222 119.701 21.7385 120.901 20.5814C120.571 20.5164 120.218 20.4907 119.897 20.4907C118.47 20.4907 116.008 21.0074 115.617 22.6196C115.532 22.9664 115.711 23.1964 116.062 23.2266Z" fill="black"/>
</svg>
